<svg xmlns="http://www.w3.org/2000/svg" viewBox="0 0 180 180"><style>@media (prefers-color-scheme:dark){.shape{fill:#f6f0e9}}</style><path fill="0D2314" fill-rule="evenodd" d="M86.587 1h-14.91c-4.643 0-9.031.89-13.165 2.671-4.07 1.718-7.633 4.103-10.685 7.156-3.053 3.053-5.47 6.614-7.251 10.685C38.859 25.582 38 29.939 38 34.582v73.461c0 4.643.859 9 2.576 13.071 1.78 4.07 4.198 7.632 7.25 10.685 3.053 3.052 6.615 5.469 10.686 7.25 4.134 1.717 8.522 2.576 13.165 2.576h14.91c4.643 0 9-.859 13.07-2.576 4.071-1.781 7.633-4.198 10.686-7.25 3.053-3.053 5.438-6.615 7.155-10.685 1.781-4.071 2.671-8.428 2.671-13.071V74.931c2.19.786 4.12 1.988 5.79 3.606 1.677 1.625 3.014 3.669 4.01 6.132.996 2.463 1.494 5.346 1.494 8.648 0 4.455-.761 8.988-2.28 13.6-1.468 4.56-3.433 9.067-5.897 13.522a115.286 115.286 0 0 1-8.412 12.893 185.827 185.827 0 0 1-9.669 11.871c-7.704 8.648-16.457 17.007-26.258 25.078v8.019h63.443v-9.67H94.906c8.7-7.809 16.483-15.932 23.349-24.371a169.443 169.443 0 0 0 8.569-11.556c2.83-4.088 5.32-8.307 7.469-12.657a77.074 77.074 0 0 0 5.267-13.286c1.363-4.507 2.044-8.988 2.044-13.443 0-4.507-.734-8.543-2.201-12.107-1.415-3.616-3.381-6.709-5.897-9.277-2.515-2.568-5.477-4.533-8.883-5.896a27.304 27.304 0 0 0-4.454-1.379V34.582c0-4.643-.89-9-2.671-13.07-1.717-4.07-4.102-7.633-7.155-10.685-3.053-3.053-6.615-5.438-10.686-7.156C95.587 1.891 91.23 1 86.587 1Zm16.097 63.723v-30.14c0-3.054-.573-5.884-1.717-8.492-1.145-2.671-2.704-4.993-4.675-6.964-1.972-1.972-4.293-3.53-6.965-4.675-2.607-1.145-5.438-1.717-8.49-1.717h-3.409c-3.052 0-5.915.572-8.586 1.717a23.513 23.513 0 0 0-6.965 4.675c-1.971 1.971-3.53 4.293-4.674 6.964-1.145 2.608-1.718 5.438-1.718 8.491v73.461c0 3.053.573 5.915 1.718 8.586a23.508 23.508 0 0 0 4.674 6.965 23.529 23.529 0 0 0 6.965 4.675c2.671 1.144 5.534 1.717 8.586 1.717h3.408c3.053 0 5.884-.573 8.491-1.717 2.672-1.145 4.993-2.704 6.965-4.675a23.517 23.517 0 0 0 4.675-6.965c1.144-2.671 1.717-5.533 1.717-8.586V74.981l-.231.097a18.37 18.37 0 0 0-5.66 3.852c-1.625 1.625-2.909 3.538-3.852 5.739-.944 2.149-1.415 4.481-1.415 6.997v4.56l-10.142-1.651v-2.91c0-3.825.708-7.415 2.123-10.77 1.467-3.354 3.46-6.289 5.975-8.804 2.515-2.516 5.45-4.482 8.805-5.897a25.873 25.873 0 0 1 4.397-1.471Z" class="shape" clip-rule="evenodd"/></svg>