<svg class="image" xmlns="http://www.w3.org/2000/svg" viewBox="0 0 769.98 769.98">
  <style>
    @media (prefers-color-scheme: dark) {
      .image { fill: #ffffff }
    }
  </style>
  <path d="M112.66 84.01c-5.309.126-11.349 1.481-15.408 3.766-4.752 2.674-14.23 11.142-14.23 12.713 0 .145-1.397 1.927-3.104 3.962-1.706 2.034-3.367 4.065-3.692 4.512-.325.448-1.021 1.363-1.547 2.033s-1.84 2.641-2.92 4.38c-1.081 1.74-3.642 5.412-5.693 8.162-2.05 2.749-3.728 5.168-3.728 5.374 0 .463-1.319 1.91-4.576 5.018-1.38 1.317-2.97 2.989-3.533 3.717-.564.729-2.235 2.639-3.714 4.244-4.625 5.021-11.223 14.638-11.223 16.359 0 .394-.234.925-.519 1.179-.288.254-.852 1.338-1.259 2.409-.407 1.07-.948 2.165-1.204 2.433-.774.812-5.287 10.643-5.287 11.525 0 .453-.246.946-.543 1.097-.299.151-.727 1.205-.955 2.34-.231 1.136-.653 2.438-.943 2.893-.291.455-1.59 4.067-2.888 8.027-3.106 9.476-3.323 10.105-4.68 13.524-2.849 7.18-4.743 11.071-6.107 12.543-1.266 1.367-2.405 3.461-5.233 9.626-.831 1.81-3.402 10.318-4.401 14.563-.473 2.007-1.116 4.02-1.429 4.473-.313.454-.854 2.862-1.203 5.352-.348 2.49-.89 5.512-1.202 6.716-1.578 6.088-1.823 15.662-.911 35.515.276 6.021.486 11.275.464 11.676-.038.402.207 2.153.51 3.892.303 1.74.693 4.257.87 5.595.174 1.338.564 3.199.864 4.135.299.937.721 2.798.933 4.136s.587 2.761.832 3.162c.246.402.621 2.343.834 4.313.211 1.971.755 4.926 1.205 6.568 2.709 9.886 3.644 15.842 3.297 20.982-.31 4.59 1.339 13.93 3.295 18.67.506 1.23 1.137 3.55 1.401 5.16 1.287 7.83 6.144 21.06 10.131 27.61 1.024 1.68 3.105 4.15 4.624 5.48 2.478 2.19 2.902 2.91 4.128 7.06.752 2.54 2.27 6.19 3.372 8.1 1.103 1.92 2.004 3.62 2.004 3.79 0 .72 4.772 5.54 7.446 7.52 1.592 1.18 4.225 2.64 5.85 3.25 3.888 1.45 11.925 1.88 18.024.98 2.437-.37 4.619-.52 4.849-.35 1.132.85-8.313 18.78-13.266 25.18-.854 1.1-1.983 2.86-2.508 3.89-.525 1.04-2.003 3.21-3.286 4.84-1.285 1.62-2.335 3.08-2.335 3.23 0 .79-6.426 8.04-9.75 11.01-2.814 2.51-3.456 3.72-2.64 4.97 1.14 1.76 3.176 1.65 9.78-.51 7.994-2.61 11.578-3.43 22.11-5.07 4.713-.73 10.939-1.84 13.835-2.47 2.897-.62 5.623-1.02 6.058-.88 1.132.35.988 1.56-.688 5.78-.812 2.05-1.476 3.94-1.476 4.2s-.382 1.17-.848 2.01c-1.821 3.29-4.623 14.43-5.367 21.33-.211 1.95-.741 5.2-1.178 7.2-.438 2.01-.967 5.95-1.179 8.76s-.621 5.85-.906 6.76c-.583 1.85 0 3.16 1.77 3.93 2.919 1.29 5.381-.09 6.46-3.62 1.739-5.69 12.745-12.69 23.703-15.1 2.112-.46 5.037-1.13 6.499-1.48 5.573-1.35 7.61-1.68 10.263-1.68 3.128 0 3.255.26 1.904 3.93-1.312 3.56-2.128 12.05-2.244 23.32-.17 16.74.429 19.46 4.312 19.46 1.222 0 2.183-.55 3.756-2.13 2.678-2.69 7.219-4.65 15.102-6.54 14.022-3.34 23.721-3.93 27.558-1.68l1.852 1.09-.258 4.71c-.139 2.59.057 6.26.439 8.15.382 1.9.792 4.33.91 5.4.121 1.07.652 2.93 1.183 4.13 1.348 3.05 6.031 10.77 7.158 11.8 1.606 1.46 4.269 1.07 6.934-1.02 3.434-2.7 8.851-4.35 25.136-7.65 5.164-1.05 13.706-.9 16.895.3 2.998 1.12 3.46 1.79 5.865 8.49 1.454 4.05 6.497 13.15 8.225 14.84.411.4.889 1.07 1.064 1.48.174.41 1.843 2.21 3.705 4.01 3.969 3.83 5.807 4.24 8.477 1.89 5.186-4.57 16.951-5.37 25.408-1.74.862.38 1.918.68 2.344.68 1.234 0 7.145 2.46 11.464 4.76 2.181 1.17 6.169 4.04 8.863 6.4 5.715 4.99 9.194 6.72 14.663 7.26 2.104.21 5.422.29 7.372.18 4.148-.22 12.615-1.82 14.933-2.82.887-.38 1.833-.69 2.104-.69.268 0 1.893-.77 3.607-1.71 1.714-.93 3.469-1.7 3.9-1.7.784 0 1.353-.14 7.958-1.9 4.883-1.3 13.677-2.65 14.857-2.28.535.17 2.862.53 5.172.8 2.309.27 5.794.92 7.744 1.46 6.068 1.66 7.151 1.92 7.959 1.92.43 0 2.186.77 3.899 1.7 1.714.94 3.296 1.71 3.517 1.71.219 0 1.24.31 2.264.7 5.744 2.17 15.226 3.3 22.019 2.62 5.824-.58 9.311-2.28 15.049-7.35 2.604-2.3 6.518-5.14 8.697-6.3 4.316-2.3 10.226-4.75 11.46-4.76.426 0 1.481-.3 2.343-.68 8.457-3.63 20.223-2.83 25.409 1.74 2.67 2.35 4.509 1.94 8.477-1.89 1.862-1.8 3.53-3.6 3.705-4.01.174-.41.653-1.08 1.064-1.48 1.728-1.69 6.771-10.79 8.225-14.84 2.405-6.7 2.866-7.37 5.864-8.49 3.189-1.2 11.731-1.35 16.895-.3 16.286 3.3 21.704 4.95 25.137 7.65 2.665 2.09 5.327 2.48 6.937 1.02 1.13-1.03 5.81-8.75 7.15-11.8.54-1.2 1.07-3.06 1.19-4.13.11-1.07.53-3.5.91-5.4.38-1.89.58-5.56.44-8.15l-.26-4.71 1.85-1.09c3.84-2.25 13.54-1.66 27.56 1.68 7.88 1.89 12.42 3.85 15.1 6.54 1.57 1.58 2.53 2.13 3.76 2.13 3.88 0 4.48-2.71 4.31-19.46-.12-11.27-.93-19.76-2.24-23.32-1.36-3.66-1.23-3.93 1.9-3.93 2.65 0 4.69.33 10.26 1.68 1.46.35 4.39 1.02 6.5 1.48 10.96 2.41 21.97 9.41 23.7 15.1 1.08 3.53 3.55 4.91 6.46 3.62 1.77-.77 2.36-2.08 1.77-3.93-.28-.91-.69-3.95-.9-6.76s-.74-6.75-1.18-8.76c-.44-2-.97-5.24-1.18-7.2-.74-6.9-3.54-18.04-5.37-21.33-.46-.84-.84-1.75-.84-2.01s-.67-2.15-1.48-4.19c-1.68-4.23-1.82-5.43-.69-5.79.44-.14 3.16.26 6.06.88 2.9.63 9.12 1.74 13.83 2.47 10.54 1.64 14.12 2.46 22.12 5.07 6.6 2.16 8.64 2.27 9.78.51.81-1.25.17-2.46-2.64-4.97-3.33-2.97-9.75-10.22-9.75-11.01 0-.15-1.06-1.61-2.34-3.23-1.28-1.63-2.76-3.8-3.29-4.84-.52-1.03-1.65-2.79-2.5-3.89-4.96-6.4-14.4-24.33-13.27-25.18.23-.17 2.41-.02 4.85.35 6.1.9 14.13.47 18.02-.98 1.63-.61 4.26-2.07 5.85-3.25 2.68-1.98 7.45-6.79 7.45-7.52 0-.17.9-1.87 2-3.79 1.11-1.91 2.62-5.56 3.37-8.1 1.23-4.15 1.66-4.87 4.13-7.06 1.52-1.33 3.6-3.8 4.63-5.48 3.98-6.55 8.84-19.78 10.13-27.61.26-1.61.89-3.93 1.4-5.16 1.95-4.74 3.6-14.08 3.29-18.67-.34-5.14.59-11.096 3.3-20.982.45-1.642.99-4.597 1.21-6.568.21-1.97.58-3.911.83-4.313.25-.401.62-1.824.83-3.162s.63-3.199.93-4.135c.3-.937.69-2.798.87-4.136.17-1.338.57-3.855.87-5.595.3-1.739.53-3.49.51-3.892-.04-.401.19-5.655.46-11.676.92-19.853.67-29.427-.91-35.515-.31-1.204-.85-4.226-1.2-6.716s-.89-4.898-1.2-5.352c-.32-.453-.96-2.466-1.43-4.473-1-4.245-3.57-12.753-4.4-14.563-2.83-6.165-3.97-8.259-5.24-9.626-1.36-1.472-3.25-5.363-6.1-12.542-1.36-3.419-1.58-4.049-4.68-13.525-1.3-3.96-2.6-7.572-2.89-8.027s-.72-1.757-.94-2.893c-.23-1.135-.66-2.189-.96-2.34s-.54-.644-.54-1.097c0-.882-4.51-10.713-5.29-11.525-.26-.268-.8-1.363-1.2-2.433-.41-1.07-.98-2.154-1.26-2.408-.29-.254-.52-.786-.52-1.18 0-1.721-6.6-11.337-11.22-16.359-1.48-1.605-3.15-3.515-3.72-4.244-.56-.728-2.15-2.4-3.53-3.717-3.26-3.108-4.58-4.555-4.58-5.018 0-.206-1.67-2.624-3.73-5.373-2.05-2.75-4.61-6.423-5.69-8.163-1.08-1.739-2.39-3.71-2.92-4.38-.52-.67-1.22-1.585-1.54-2.033-.33-.447-1.99-2.478-3.7-4.512-1.7-2.034-3.1-3.817-3.1-3.962 0-1.571-9.48-10.039-14.23-12.713-6.5-3.655-18.06-4.931-23.59-2.602-6.59 2.775-14.27 8.667-17.34 13.298-.4.601-1.98 2.664-3.51 4.584s-2.79 3.609-2.79 3.754-1.56 2.187-3.46 4.537c-2.99 3.687-10.72 15.882-10.72 16.908 0 .194-.37 1.044-.82 1.887s-1.93 3.722-3.29 6.397a506.495 506.495 0 0 1-3 5.839c-1.49 2.775-2.3 4.785-2.91 7.195-.61 2.42-9.28 17.289-11.84 20.292-.56.669-1.91 2.64-2.98 4.379-1.08 1.739-2.4 3.709-2.94 4.378s-2.25 3.187-3.81 5.595c-4.631 7.195-7.227 10.569-10.102 13.136-1.499 1.338-4.126 4.074-5.839 6.081-2.568 3.008-11.544 10.532-17.702 14.839-2.534 1.772-14.002 10.652-17.837 13.811-4.2 3.459-4.619 3.464-6.751.087-.602-.955-1.845-2.412-2.763-3.24l-4.044-3.648c-4.928-4.45-9.38-7.334-14.244-9.228-4.505-1.753-5.344-1.917-9.814-1.912-2.688.004-6.349.346-8.136.762-5.167 1.202-5.06 1.23-4.758-1.254.93-7.659-.43-21.159-2.477-24.569-.642-1.07-1.52-3.15-1.951-4.621a781.406 781.406 0 0 0-1.448-4.866c-.902-2.982-5.057-10.028-7.314-12.405-2.408-2.535-10.338-9.001-11.038-9.001-.299 0-1.84-.657-3.425-1.459-1.584-.803-3.195-1.46-3.579-1.46-.383 0-2.879-.892-5.547-1.983-3.009-1.23-7.881-2.607-12.829-3.628-9.727-2.006-10.779-2.122-14.164-1.573-4.099.666-4.774.752-8.587 1.088-6.439.566-19.39 2.757-24.524 4.148-3.973 1.077-6.212 1.86-14.182 4.959a1606.97 1606.97 0 0 1-8.273 3.196c-1.138.43-3.18 1.399-4.538 2.153-1.359.754-2.755 1.37-3.103 1.37-.347 0-.632.219-.632.487 0 .267-.306.486-.683.486-.375 0-1.555.548-2.62 1.217-1.065.668-2.118 1.216-2.34 1.216-.669 0-6.414 3.559-7.244 4.487-.424.475-1.116.864-1.538.864s-1.423.493-2.225 1.095-2.98 1.949-4.841 2.994-3.647 2.304-3.968 2.798c-.321.493-.928.898-1.348.898s-2.238 1.258-4.042 2.797c-1.803 1.539-4.043 3.371-4.977 4.073-4.702 3.53-12.908 11.058-17.654 16.195-6.161 6.669-8.568 9.442-8.568 9.87 0 .167-1.541 1.966-3.425 3.996-2.957 3.188-7.803 9.427-7.803 10.049 0 .113-.963 1.904-2.141 3.979-2.124 3.742-8.314 17.102-10.088 21.773-.508 1.338-1.504 3.637-2.213 5.109-.708 1.471-1.93 4.263-2.715 6.203-.786 1.94-1.635 3.527-1.886 3.527-.254 0-.477-1.587-.502-3.527-.061-4.702-.431-7.321-1.525-10.825-.501-1.606-.991-3.254-1.089-3.663s-1.123-2.759-2.279-5.222c-2.581-5.504-6.197-10.146-10.892-13.984-3.8-3.107-15.303-11.997-17.622-13.619-6.158-4.307-15.134-11.83-17.702-14.839-1.713-2.006-4.34-4.743-5.839-6.081-2.875-2.567-5.471-5.941-10.107-13.136-1.551-2.408-3.264-4.926-3.804-5.595-.54-.668-1.862-2.639-2.937-4.378-1.076-1.739-2.42-3.71-2.988-4.379-2.553-3.003-11.227-17.872-11.837-20.292-.608-2.41-1.421-4.42-2.914-7.195a597.277 597.277 0 0 1-2.994-5.838 538.155 538.155 0 0 0-3.293-6.398c-.45-.843-.819-1.693-.819-1.887 0-1.026-7.731-13.221-10.719-16.908-1.905-2.35-3.463-4.392-3.463-4.537s-1.252-1.834-2.783-3.754c-1.532-1.92-3.111-3.983-3.51-4.584-3.075-4.631-10.759-10.523-17.344-13.298-2.073-.873-4.996-1.24-8.181-1.164zm-1.258 4.663c3.748-.112 8.257.666 8.257 1.424 0 .257.333.468.739.468 1.356.001 7.446 4.322 9.819 6.967 2.495 2.781 4.73 5.635 11.107 14.185 3.802 5.099 5.344 7.345 8.02 11.688.66 1.07 1.391 2.055 1.625 2.189s1.827 3.089 3.539 6.568c1.711 3.478 4.306 8.733 5.765 11.676 1.46 2.943 2.771 6.008 2.914 6.811.272 1.536 2.934 7.439 3.728 8.271.253.267 2.116 3.113 4.136 6.324 4.324 6.877 6.534 10.124 7.119 10.46.234.134.631.791.884 1.46.254.669 1.134 2.092 1.956 3.162s2.386 3.369 3.476 5.108c5.071 8.092 7.614 11.375 11.847 15.294 1.426 1.321 3.507 3.534 4.623 4.918 2.734 3.393 8.302 8.333 13.771 12.222 4.275 3.041 14.567 10.875 21.943 16.704 6.273 4.956 9.868 10.157 12.607 18.244 1.885 5.563 2.131 7.318 2.528 18.001.215 5.801.591 9.206 1.113 10.09.464.787.56 1.448.234 1.614-.302.155-.392.495-.197.756.197.26.099.738-.215 1.061-.763.783-3.198 9.094-6.372 21.75-.571 2.275-1.361 4.683-1.756 5.352s-1.289 2.968-1.987 5.108c-.699 2.141-2.041 5.425-2.984 7.298a333.4 333.4 0 0 0-2.056 4.135c-.189.402-.851 1.387-1.474 2.189-.623.803-1.153 1.749-1.177 2.102-.056.851-7.039 9.593-11.372 14.239-1.894 2.031-3.443 3.946-3.443 4.253 0 .31-.23.57-.512.57-.284 0-1.182.82-1.999 1.82-1.288 1.59-6.998 6.5-12.756 10.99-2.029 1.58-3.343 3.86-2.842 4.94.665 1.42 3.185.81 6.112-1.5 1.561-1.23 3.452-2.58 4.204-2.99 1.468-.82 13.111-12.06 13.111-12.67 0-.19.666-.95 1.482-1.674 2.368-2.102 8.892-9.72 10.346-12.081.732-1.189 1.495-2.27 1.695-2.404 1.279-.855 5.16-8.179 7.734-14.595 1.663-4.147 3.29-7.982 3.614-8.521.325-.54.676-1.525.782-2.19s.339-1.537.52-1.938a22.505 22.505 0 0 0 1.8-6.568c.359-3.229 6.043-21.691 7.49-24.325.295-.536 1.361-3.272 2.372-6.082 1.882-5.234 1.993-5.489 3.982-9.243.638-1.205 1.486-3.065 1.884-4.136.986-2.643 4.129-9.88 5.072-11.676.421-.803 1.329-2.883 2.017-4.622s1.893-4.257 2.677-5.595a301.657 301.657 0 0 0 2.912-5.108c1.992-3.589 4.1-6.467 7.111-9.71 1.377-1.483 3.779-4.297 5.337-6.254s3.395-4.116 4.084-4.797c.688-.681 2.06-2.035 3.05-3.009.99-.975 2.216-2.319 2.725-2.988.892-1.173 8-7.589 13.5-12.185 3.769-3.15 12.913-9.809 15.363-11.188 1.138-.64 2.422-1.446 2.853-1.791.432-.345 1.363-.879 2.069-1.186 1.547-.674 6.522-3.909 6.799-4.421.109-.201.482-.365.83-.365s1.457-.51 2.463-1.132c6.669-4.124 27.283-12.557 36.102-14.767 1.625-.407 5.748-1.158 9.16-1.669 21.443-3.208 24.281-3.353 32.796-1.682 3.575.702 8.362 2.008 10.637 2.901 2.276.894 4.802 1.792 5.614 1.996 4.226 1.06 10.148 4.361 14.272 7.954 4.039 3.519 5.222 5.043 8.356 10.777.658 1.204 1.42 2.57 1.694 3.034.272.465.497 1.369.497 2.01s.64 2.562 1.421 4.271 1.612 4.198 1.847 5.532c.234 1.333.715 2.72 1.066 3.082 1.112 1.145.859 18.05-.351 23.425-.968 4.299-3.079 12.437-3.661 14.108-.14.402-1.009 3.4-1.931 6.664-.923 3.264-1.832 6.06-2.019 6.215-.189.154-.904-.993-1.593-2.548-1.259-2.843-5.159-8.786-7.632-11.629-.731-.84-1.329-1.691-1.329-1.891 0-.895-7.204-5.797-11.121-7.567-7.744-3.501-10.299-3.976-21.676-4.033-9.124-.045-10.453.059-14.478 1.132-2.437.65-5.363 1.652-6.501 2.225-1.137.574-2.533 1.185-3.102 1.357-.568.173-1.034.539-1.034.815s-.39.503-.868.503c-1.706 0-7.504 2.429-9.544 3.999l-3.07 2.361c-3.74 2.875-10.746 11.121-10.746 12.648 0 .986 1.707 1.601 3.164 1.141.531-.167 2.843-2.242 5.136-4.61 5.753-5.939 8.752-8.013 16.568-11.461 9.393-4.142 12.428-4.967 20.389-5.541 6.054-.437 7.47-.38 12.832.52 6.376 1.069 9.945 2.443 15.152 5.831 3.768 2.452 6.567 5.858 11.759 14.307 2.832 4.609 3.728 13.258 1.961 18.933-1.556 5-.654 7.562 1.857 5.277 1.112-1.012 4.638-7.259 5.687-10.079.399-1.07.882-2.275 1.072-2.676.193-.401.37-.925.398-1.164.038-.238.465-.648.972-.911 1.115-.579 6.405 1.423 9.125 3.454 7.109 5.308 11.976 12.948 13.96 21.916 1.784 8.064 2.046 21.185.53 26.572-1.932 6.873-5.35 15.376-9.549 23.758-2.099 4.191-2.134 5.414-.189 6.465 1.971 1.063 3.707.34 5.651-2.352.777-1.078 3.072-3.478 5.098-5.336 2.134-1.957 4.704-5.053 6.111-7.362 1.335-2.191 2.871-4.421 3.413-4.956.543-.535 1.491-1.794 2.108-2.798.616-1.003 1.312-1.824 1.546-1.824.235 0 .957 1.04 1.607 2.311 2.589 5.062 4.658 11.736 5.316 17.149.577 4.751 0 17.016-.974 20.434-2.547 9.003-3.369 11.293-5.159 14.353-1.096 1.88-1.992 3.81-1.992 4.29 0 1.76 1.151 2.76 3.158 2.76 1.619 0 2.41-.45 4.854-2.78 1.606-1.53 3.21-3.22 3.564-3.77.355-.54 2.149-3.22 3.989-5.94s3.345-5.09 3.345-5.25c0-.17 1.024-1.56 2.276-3.08 8.617-10.49 19.512-27.302 22.445-34.639 3.643-9.116 4.988-14.798 5.135-21.695.317-14.922-5.648-22.932-20.803-27.931l-3.833-1.263-.132-9.706c-.091-6.548-.401-10.45-.954-11.993-.705-1.97-.7-2.472.038-3.617 1.342-2.089 16.276-14.026 27.814-22.232 5.469-3.889 11.036-8.829 13.771-12.222 1.117-1.384 3.197-3.597 4.623-4.918 4.229-3.919 6.779-7.202 11.849-15.294 1.09-1.739 2.65-4.038 3.47-5.108.83-1.07 1.71-2.493 1.96-3.162s.65-1.326.88-1.46c.59-.335 2.8-3.583 7.12-10.46 2.02-3.211 3.88-6.057 4.14-6.324.79-.832 3.45-6.735 3.73-8.271.14-.802 1.45-3.868 2.91-6.811s4.05-8.198 5.77-11.676c1.71-3.479 3.3-6.434 3.53-6.568.24-.134.97-1.119 1.63-2.189 2.68-4.343 4.22-6.589 8.02-11.688 6.38-8.55 8.61-11.404 11.11-14.185 2.37-2.645 8.46-6.966 9.82-6.966.4-.001.73-.212.73-.469 0-.758 4.51-1.536 8.26-1.424 4.82.143 10.51 2.392 15.33 6.063 2.54 1.931 5.57 5.134 9.19 9.695 8.4 10.598 10.36 13.173 10.36 13.593 0 .355 4 6.106 8.47 12.191.99 1.338 3.7 4.403 6.03 6.811 7.91 8.16 11.88 13.122 15.59 19.46 2.73 4.663 9.27 18.115 11.01 22.623.87 2.274 1.79 4.472 2.04 4.884.24.412.64 1.725.88 2.919.25 1.194.92 3.265 1.5 4.603s1.23 3.308 1.45 4.378c.44 2.226 5.3 14.619 6.27 15.997.35.503.76 1.463.91 2.133.15.671.63 1.791 1.06 2.491s.98 1.987 1.2 2.859c.23.873.8 2.215 1.27 2.985.75 1.251 2.06 4.827 3.82 10.51.34 1.07 1.27 2.775 2.08 3.788 1.41 1.761 3.95 10.08 4.72 15.429.18 1.204.73 3.572 1.23 5.262.5 1.691.78 3.18.63 3.309-.16.129-.05 1.045.23 2.035 1.2 4.118.15 35.757-1.59 47.723-.48 3.315-.98 6.173-1.12 6.351-.13.178-.76 3.048-1.41 6.378-1.32 6.86-1.56 8.001-2.38 11.405-3.02 12.551-3.11 13.164-3.29 22.866-.18 9-.19 9.09-2.04 14.2-.7 1.93-1.77 5.76-2.4 8.51-1.77 7.9-3.92 14.69-5.8 18.4-.34.67-1.21 2.53-1.94 4.14-1.71 3.77-3.62 5.86-6.41 7.03-2.46 1.03-3.56 2.7-3.52 5.37.06 4.89-5.58 15.95-10.32 20.25-3.91 3.53-6.8 4.66-12.67 4.94-5.89.28-11.15-.5-14.85-2.2-2.95-1.35-5.69-1.28-6.37.17-.8 1.73 2.78 12.07 6.72 19.41 5.47 10.18 19.48 31.1 21.52 32.14.98.5.55 1.3-.51.95-1.62-.54-12.04-2.69-14.33-2.97-1.13-.13-2.41-.34-2.82-.46-.42-.11-4.08-.76-8.14-1.44-4.05-.67-9.86-1.88-12.89-2.68-4.61-1.22-5.82-1.37-7.33-.94-1 .29-1.95.81-2.11 1.16-.31.66.22 2.83 1.31 5.38.35.8 1.99 5.07 3.65 9.48 1.67 4.42 3.15 8.36 3.31 8.76.57 1.49 2.47 10.07 2.85 12.89.22 1.61.65 4.46.97 6.33 1.02 5.99 1.25 9 .68 9-.3 0-2.39-1.17-4.64-2.59-2.25-1.43-6.35-3.5-9.11-4.62-4.98-2-15.76-4.95-18.12-4.95-.68 0-4.1-.54-7.61-1.19-5.69-1.06-6.55-1.11-8-.5-2.19.94-2.53 2.64-1.43 7.04 1.98 7.88 3.5 30.87 2.31 34.79-.43 1.42-1.19 1.49-4.21.4-5.57-2.03-7.1-2.54-9.03-3.03-1.14-.29-3.38-.87-4.99-1.29-5.1-1.33-11.64-2.2-18.73-2.49-6.49-.27-7.06-.22-10.14.94-1.8.68-3.56 1.69-3.93 2.25-.35.55-.78 3.04-.94 5.52-.69 10.9-.83 12.45-1.36 15.21-.64 3.33-3.33 9.03-4.93 10.44-1.188 1.05-1.616 1-6.097-.76-3.142-1.23-16.476-4.45-24.066-5.8-10.3-1.83-21.627-.07-23.504 3.66-.427.85-1.095 1.8-1.485 2.12-.389.32-1.569 2.88-2.623 5.68-1.053 2.8-2.861 6.62-4.018 8.5a452.147 452.147 0 0 0-2.751 4.49c-.355.6-.846 1.1-1.09 1.1-.242 0-.443.29-.443.64 0 .34-.9 1.44-2 2.43-2.228 2-4.471 2.34-6.751 1.03-5.094-2.94-18.896-3.2-25.228-.49-.975.42-2.108.77-2.519.77-.41 0-1.208.2-1.772.44-.565.24-3.021 1.23-5.458 2.19-7.969 3.15-10.688 4.77-17.129 10.21-4.967 4.2-7.113 5-14.317 5.37-7.592.39-12.598-.54-19.965-3.73-3.088-1.34-7.159-2.84-9.048-3.34-4.326-1.14-8.124-2.01-9.271-2.13-.488-.05-1.951-.49-3.25-.97-3.334-1.23-12.656-1.24-15.956-.01-1.3.49-2.763.93-3.25.98-1.148.12-4.945.99-9.272 2.13-1.888.5-5.96 2-9.047 3.34-3.177 1.37-7.423 2.76-9.782 3.2-4.247.79-6.415.84-13.315.31-4.675-.36-6.658-1.29-11.473-5.38-6.088-5.17-8.935-6.86-16.84-9.98-2.438-.96-4.894-1.95-5.458-2.19-.565-.24-1.363-.44-1.773-.44-.411 0-1.544-.35-2.519-.77-6.332-2.71-20.134-2.45-25.229.49-2.28 1.31-4.522.97-6.75-1.03-1.101-.99-2.001-2.09-2.001-2.43 0-.35-.2-.64-.443-.64-.242 0-.734-.5-1.09-1.1-.355-.6-1.593-2.62-2.75-4.49-1.157-1.88-2.965-5.7-4.019-8.5-1.053-2.8-2.233-5.36-2.623-5.68-.389-.32-1.058-1.27-1.485-2.12-1.876-3.73-13.204-5.49-23.504-3.66-7.59 1.35-20.924 4.57-24.066 5.8-4.481 1.76-4.909 1.81-6.094.76-1.6-1.41-4.288-7.11-4.93-10.44-.532-2.76-.672-4.31-1.364-15.21-.159-2.48-.581-4.97-.942-5.52-.363-.56-2.127-1.57-3.924-2.25-3.082-1.16-3.653-1.21-10.143-.94-7.09.29-13.632 1.16-18.728 2.49-1.607.42-3.852 1-4.99 1.29-1.934.49-3.457 1-9.031 3.03-3.019 1.09-3.776 1.02-4.208-.4-1.196-3.92.329-26.91 2.307-34.79 1.105-4.4.758-6.1-1.429-7.04-1.452-.61-2.306-.56-8.005.5-3.509.65-6.93 1.19-7.604 1.19-2.359 0-13.146 2.95-18.123 4.95-2.762 1.12-6.863 3.19-9.113 4.62-2.249 1.42-4.336 2.59-4.638 2.59-.567 0-.339-3.01.682-9 .318-1.87.756-4.72.97-6.33.378-2.82 2.277-11.4 2.851-12.89.155-.4 1.642-4.34 3.306-8.76 1.663-4.41 3.305-8.68 3.649-9.48 1.089-2.55 1.621-4.72 1.314-5.38-.163-.35-1.113-.87-2.11-1.16-1.514-.43-2.723-.28-7.329.94-3.034.8-8.836 2.01-12.893 2.68-4.057.68-7.718 1.33-8.135 1.44-.418.12-1.69.33-2.827.46-2.291.28-12.704 2.43-14.33 2.97-1.06.35-1.482-.45-.501-.95 2.04-1.04 16.044-21.96 21.515-32.14 3.942-7.34 7.522-17.68 6.716-19.41-.676-1.45-3.415-1.52-6.361-.17-3.7 1.7-8.964 2.48-14.858 2.2-5.868-.28-8.759-1.41-12.662-4.94-4.748-4.3-10.388-15.36-10.324-20.25.038-2.67-1.055-4.34-3.52-5.37-2.793-1.17-4.696-3.26-6.409-7.03-.729-1.61-1.603-3.47-1.943-4.14-1.88-3.71-4.023-10.5-5.803-18.39-.622-2.76-1.698-6.59-2.393-8.52-1.849-5.11-1.864-5.2-2.038-14.2-.189-9.701-.276-10.314-3.294-22.865-.818-3.404-1.056-4.546-2.382-11.406-.643-3.33-1.278-6.2-1.412-6.378-.133-.178-.637-3.036-1.118-6.351-1.736-11.966-2.791-43.605-1.592-47.723.287-.99.394-1.906.238-2.035-.159-.129.124-1.617.626-3.308.502-1.69 1.054-4.058 1.228-5.262.77-5.349 3.317-13.669 4.723-15.43.809-1.013 1.743-2.717 2.075-3.787 1.767-5.683 3.07-9.26 3.828-10.511.466-.77 1.034-2.112 1.262-2.985.227-.872.77-2.158 1.204-2.858.435-.7.911-1.821 1.059-2.491.147-.671.556-1.631.909-2.134.968-1.378 5.83-13.77 6.276-15.996.215-1.07.866-3.04 1.447-4.378s1.253-3.41 1.495-4.604.64-2.507.887-2.919c.246-.412 1.166-2.609 2.041-4.883 1.735-4.508 8.28-17.96 11.008-22.623 3.707-6.338 7.682-11.3 15.586-19.46 2.332-2.408 5.045-5.473 6.029-6.811 4.474-6.085 8.471-11.837 8.471-12.192 0-.42 1.961-2.994 10.362-13.593 3.615-4.561 6.65-7.764 9.188-9.695 4.824-3.671 10.509-5.92 15.33-6.063zm4.243 50.606c-5.635.107-10.799 1.579-14.057 4.065-.881.672-1.897 1.224-2.255 1.228-1.161.007-8.481 5.993-10.954 8.954-2.703 3.238-2.963 4.383-1.168 5.173 1.333.588 3.586.07 6.447-1.481 1.801-.977 5.784-2.16 9.755-2.898 2.39-.445 3.755-.403 7.091.214 8.378 1.548 13.233 3.44 17.795 6.937a65.918 65.918 0 0 0 3.479 2.472c2.467 1.597 6.314 1.462 7.992-.281 1.095-1.138 1.243-1.762.982-4.181-.616-5.698-5.081-9.168-12.92-10.042-7.341-.819-15.559-1.012-19.696-.463-2.276.302-5.038.665-6.138.806-2.642.341-2.138-.252 2.456-2.887 6.146-3.526 12.428-4.375 16.936-2.289 3.325 1.538 5.376.559 4.544-2.17-.569-1.867-3.118-2.881-7.849-3.119a35.61 35.61 0 0 0-2.44-.038zm538.69 0c-.81-.015-1.62-.004-2.44.038-4.74.238-7.28 1.252-7.85 3.119-.84 2.729 1.21 3.708 4.54 2.17 4.51-2.086 10.79-1.237 16.94 2.289 4.59 2.635 5.09 3.228 2.45 2.887-1.1-.141-3.86-.505-6.14-.806-4.13-.549-12.35-.357-19.69.462-7.84.875-12.3 4.345-12.92 10.043-.26 2.418-.11 3.043.98 4.181 1.05 1.087 1.76 1.338 3.82 1.338 2.59 0 3.73-.526 7.65-3.529 4.56-3.497 9.42-5.389 17.8-6.938 3.33-.616 4.7-.658 7.09-.214 3.97.739 7.95 1.922 9.75 2.899 2.86 1.551 5.12 2.069 6.45 1.481 1.79-.791 1.53-1.935-1.17-5.173-2.47-2.961-9.79-8.946-10.95-8.955-.36-.003-1.38-.555-2.26-1.228-3.26-2.485-8.42-3.957-14.05-4.064zm-542.73 32.592c-5.407-.117-10.468.026-13.664.468-1.542.212-4.729.638-7.084.946-2.356.308-4.432.759-4.616 1.002-.181.244-.789.443-1.348.443-1.529 0-8.986 3.069-11.208 4.613-3.81 2.646-.844 5.631 3.321 3.342 3.762-2.068 11.386-4.417 15.768-4.859 1.3-.131 3.482-.442 4.847-.691 3.499-.637 21.631-.602 25.882.052 5.655.868 10.413 2.999 14.018 6.279 3.093 2.813 4.537 5.33 6.295 10.968 1.133 3.631 2.037 10.946 1.353 10.946-.234 0-1.286-.749-2.335-1.665-1.049-.915-3.235-2.158-4.858-2.762-1.622-.603-2.95-1.283-2.95-1.51 0-.515-1.935-1.125-7.639-2.408-4.017-.904-5.527-.977-14.749-.719-17.227.483-28.963 3.071-39.955 8.812a682.913 682.913 0 0 1-4.612 2.386c-2.916 1.483-3.161 4.201-.445 4.911 1.107.289 3.06-.519 8.365-3.462 4.129-2.292 14.137-5.545 20.22-6.573 8.673-1.466 24.781-1.821 30.477-.672 2.284.461 4.462 1.145 4.84 1.521.379.375.94.682 1.248.682.826 0 5.934 2.968 7.084 4.116 2.157 2.155 5.803 8.126 5.803 9.506 0 1.747-.762 1.848-2.589.345-3.136-2.582-8.86-4.997-14.844-6.264-3.227-.683-11.943-.174-18.018 1.054-5.882 1.189-15.905 4.401-19.05 6.104-1.212.657-2.36 1.194-2.552 1.194-.598 0-8.142 4.464-10.166 6.015-2.853 2.187-2.417 4.201.909 4.201.528 0 3.63-1.466 6.895-3.259 8.473-4.653 9.891-5.358 11.55-5.747a40.47 40.47 0 0 0 3.249-.956c5.106-1.755 6.907-2.257 11.327-3.16 6.55-1.338 13.377-1.308 18.622.083 2.217.588 4.03 1.221 4.03 1.407s1.306 1.158 2.901 2.16c4.065 2.552 5.038 4.539 4.508 9.199-.462 4.053-.929 4.394-3.74 2.732-.881-.521-3.329-1.42-5.441-1.999-4.29-1.174-8.423-1.094-15.756.306-8.109 1.548-15.418 6.08-15.043 9.329.117 1.021 3.672.688 5.628-.527 5.182-3.218 12.403-5.189 19.006-5.189 3.27 0 8.328 1.55 10.511 3.221 1.601 1.226 1.672 1.455 1.399 4.508-.159 1.769-.735 4.852-1.279 6.849-2.071 7.598-2.109 25.669-.072 34.559 1.38 6.029 1.532 7.257 1.765 14.352.125 3.746.359 7.687.526 8.757.166 1.071.475 4.573.685 7.784.489 7.516.736 8.487 2.288 9.003 3.443 1.143 4.732.316 7.59-4.867 3.223-5.847 4.626-10.14 7.235-22.136 1.725-7.934 2.689-27.265 1.614-32.353-.367-1.74-.811-8.855-.987-15.812-.177-7.077-.815-16.506-1.447-21.406-.621-4.817-1.439-12.041-1.815-16.055-.44-4.692-1.077-8.166-1.787-9.73-.607-1.338-1.666-4.387-2.351-6.776-1.781-6.205-4.151-9.696-10.144-14.941-3.24-2.836-9.904-6.075-13.475-6.55-4.581-.609-10.333-.989-15.74-1.107zm546.77 0c-5.41.118-11.16.498-15.74 1.107-3.57.475-10.24 3.715-13.48 6.551-5.99 5.245-8.36 8.735-10.14 14.94-.69 2.389-1.74 5.438-2.35 6.776-.71 1.564-1.35 5.038-1.79 9.73-.38 4.014-1.19 11.238-1.81 16.055-.63 4.9-1.27 14.329-1.45 21.406-.17 6.957-.62 14.072-.99 15.812-1.07 5.088-.11 24.419 1.62 32.352 3.04 13.99 5.85 21.431 9.88 26.203 1.03 1.207 1.45 1.354 3.26 1.112 1.14-.152 2.34-.497 2.67-.765.32-.267.81-3.067 1.07-6.221.26-3.153.64-7.156.83-8.896.2-1.739.47-6.227.6-9.973.25-7.101.4-8.336 1.78-14.352 2.03-8.89 1.99-26.961-.08-34.559-.54-1.997-1.12-5.079-1.27-6.848-.28-3.053-.2-3.284 1.39-4.509 2.19-1.671 7.24-3.221 10.51-3.221 6.61 0 13.83 1.971 19.01 5.189 1.96 1.214 5.51 1.547 5.63.527.52-4.525-10.36-9.441-23-10.389-3.17-.238-4.72-.088-7.8.754-2.11.578-4.56 1.478-5.44 1.998-2.81 1.663-3.28 1.322-3.74-2.732-.53-4.66.44-6.646 4.51-9.199 1.59-1.001 2.9-1.973 2.9-2.159 0-.187 1.81-.82 4.03-1.408 5.24-1.39 12.07-1.42 18.62-.082 4.42.903 6.22 1.405 11.33 3.161.97.335 2.43.765 3.25.955 1.66.388 3.07 1.094 11.55 5.747 3.26 1.792 6.36 3.259 6.89 3.259 3.33 0 3.76-2.014.91-4.201-2.02-1.551-9.57-6.016-10.17-6.016-.19 0-1.34-.537-2.55-1.193-3.14-1.704-13.17-4.916-19.05-6.104-6.07-1.228-14.79-1.737-18.02-1.054-5.98 1.267-11.7 3.682-14.84 6.264-1.83 1.503-2.59 1.402-2.59-.345 0-1.38 3.65-7.352 5.8-9.506 1.15-1.149 6.26-4.117 7.09-4.117.3 0 .87-.306 1.24-.682.38-.375 2.56-1.059 4.85-1.52 5.69-1.149 21.8-.794 30.47.672 6.09 1.028 16.09 4.281 20.22 6.572 5.31 2.943 7.26 3.752 8.37 3.463 2.71-.71 2.47-3.429-.45-4.912a747.05 747.05 0 0 1-4.61-2.386c-10.99-5.74-22.73-8.328-39.95-8.811-9.23-.259-10.74-.185-14.75.718-5.71 1.283-7.64 1.893-7.64 2.409 0 .226-1.33.906-2.95 1.51s-3.81 1.847-4.86 2.762c-1.05.916-2.1 1.665-2.34 1.665-.68 0 .22-7.315 1.36-10.946 1.76-5.639 3.2-8.156 6.29-10.969 3.61-3.28 8.37-5.41 14.02-6.279 4.25-.653 22.38-.689 25.88-.051 1.37.249 3.55.56 4.85.691 4.38.442 12.01 2.791 15.77 4.859 4.16 2.289 7.13-.696 3.32-3.343-2.22-1.543-9.68-4.612-11.21-4.612-.56 0-1.16-.2-1.35-.443-.18-.243-2.26-.694-4.61-1.002-2.36-.308-5.55-.735-7.09-.947-3.19-.44-8.25-.585-13.66-.467zm-167.96 46.622c6.066.034 11.234 2.631 18.422 8.543 8.133 6.69 10.429 9.992 13.021 18.724 1.439 4.852 1.55 20.186.155 21.68-.265.285-.601 1.27-.746 2.19-.306 1.944-.672 2.898-2.132 5.564a57.356 57.356 0 0 0-1.817 3.649c-.413.936-1.019 1.989-1.345 2.339-.325.351-.657 1.126-.734 1.724-.076.598-1.076 2.401-2.22 4.009-1.145 1.607-2.269 3.569-2.499 4.359-.231.789-.623 1.653-.875 1.921-.881.938-7.653 12.155-7.653 12.678 0 .29-.791 1.388-1.757 2.439s-1.764 2.048-1.772 2.217c0 .168-.976 1.591-2.149 3.162l-2.133 2.856.394-2.638c.215-1.452.626-2.996.91-3.433 3.263-5.019 3.274-29.181 0-36.236-.329-.714-.601-1.728-.601-2.254 0-.525-.89-2.536-1.978-4.469a4432.327 4432.327 0 0 1-2.932-5.215c-1.127-2.012-7.876-8.684-9.554-9.444-.642-.292-1.44-.787-1.772-1.1-1.115-1.05-5.029-2.58-7.401-2.892-2.023-.266-2.307-.453-2.042-1.343.17-.568.542-2.127.827-3.465.284-1.338.652-2.871.817-3.406.561-1.823 4.462-15.561 4.942-17.408.466-1.792.611-1.878 5.502-3.278 3.403-.974 6.347-1.488 9.104-1.473zM85.335 236.03c-1.944 0-2.366 1.689-2.344 9.375.038 7.096.702 13.182 2.602 23.221.48 2.542 1.292 6.957 1.803 9.812 1.493 8.332 7.525 27.796 10.53 33.974 2.418 4.972 2.597 5.35 3.465 7.298 1.762 3.955 6.101 6.754 13.593 8.77 2.916.784 5.795 1.644 6.399 1.91 1.529.674 3.596 3.708 3.596 5.28 0 1.536 1.48 7.619 2.651 10.9 1.226 3.439 2.668 5.814 4.529 7.454 1.451 1.28 1.604 1.68 1.144 3-.588 1.69-.235 17.7.521 23.63.264 2.08.809 4.1 1.21 4.5.4.4 1.483.72 2.407.72 2.303 0 3.2-1.43 2.302-3.67-.667-1.67-.824-4.55-.664-12.26.079-3.81.182-4.11 2.042-5.84 1.077-1 2.738-2.9 3.693-4.2.954-1.31 2.196-2.95 2.76-3.65 3.379-4.19 4.829-10.78 3.225-14.652-.918-2.216-5.156-4.086-7.376-3.253-1.687.633-4.853 5.554-4.853 7.544 0 1.421-1.413 4.226-2.376 4.716-1.218.615-3.149-4.186-5.549-13.811-2.098-8.415-3.748-10.078-11.742-11.835-7.875-1.73-11.261-4.097-13.867-9.695-2.833-6.087-6.057-13.975-6.057-14.82 0-.473-.254-1.532-.56-2.354s-1.001-2.807-1.541-4.413a130.777 130.777 0 0 0-1.774-4.929c-.435-1.106-1.353-5.266-2.039-9.244a546.483 546.483 0 0 0-2.65-14.044c-1.532-7.441-2.168-13.48-2.342-22.226-.117-5.92-.608-7.208-2.738-7.208zm599.31 0c-2.13 0-2.62 1.288-2.74 7.208-.17 8.746-.81 14.785-2.34 22.226a517.891 517.891 0 0 0-2.65 14.044c-.69 3.978-1.61 8.138-2.04 9.244-.44 1.105-1.23 3.324-1.78 4.929-.54 1.606-1.23 3.591-1.54 4.413-.3.822-.56 1.881-.56 2.354 0 .845-3.22 8.733-6.05 14.82-2.61 5.598-6 7.965-13.87 9.695-7.99 1.757-9.64 3.42-11.74 11.835-2.4 9.625-4.33 14.426-5.55 13.811-.96-.49-2.38-3.295-2.38-4.716 0-1.99-3.16-6.911-4.85-7.544-2.22-.833-6.46 1.037-7.38 3.253-1.6 3.872-.15 10.462 3.23 14.652.56.7 1.8 2.34 2.76 3.65.95 1.3 2.61 3.2 3.69 4.2 1.86 1.73 1.97 2.03 2.04 5.84.16 7.71 0 10.59-.66 12.26-.49 1.22-.5 1.95-.04 2.67.77 1.19 3.65 1.36 4.74.28.4-.4.94-2.42 1.2-4.5.76-5.93 1.11-21.94.53-23.63-.46-1.32-.31-1.72 1.14-3 1.86-1.64 3.3-4.015 4.53-7.454 1.17-3.281 2.65-9.364 2.65-10.9 0-1.572 2.07-4.606 3.6-5.28.6-.266 3.48-1.126 6.39-1.91 7.5-2.016 11.84-4.815 13.6-8.77.86-1.947 1.04-2.326 3.46-7.298 3.01-6.178 9.04-25.642 10.53-33.974.51-2.854 1.32-7.27 1.81-9.812 1.89-10.039 2.58-16.125 2.6-23.221.04-7.686-.4-9.375-2.35-9.375zm-606.83 13.484c-.997.106-1.944.968-2.43 2.416-.382 1.142-.543 6.575-.418 14.257.182 11.133.337 12.789 1.519 16.061.725 2.007 1.675 5.072 2.111 6.812.436 1.739 1.478 5.565 2.314 8.504.837 2.938 1.52 5.935 1.52 6.658s.291 1.931.645 2.684c.628 1.333 1.471 21.561.899 21.561-.159 0-2.002-.967-4.098-2.149-2.096-1.181-4.627-2.495-5.623-2.919-2.346-.999-6.269-.985-8.357.03-2.919 1.42-3.605 3.456-3.898 11.565-.147 4.036-.413 8.104-.596 9.041-.34 1.739-1.007 14.059-1.76 32.429l-.421 10.29 1.532 1.27c2.81 2.31 4.213 1.74 8.23-3.37 3.084-3.91 3.266-4.85 3.759-19.46.314-9.33 1.24-13.85 3.453-16.887 2.206-3.024 2.78-3.549 4.835-4.423 7.074-3.009 8.423-6.05 8.79-19.796.284-10.59-1.244-21.856-4.122-30.411-.54-1.603-1.336-4.481-1.769-6.394-.434-1.914-1.067-4.213-1.408-5.109-1.384-3.648-1.908-9.007-1.937-19.75-.038-9.823-.159-11.433-1.013-12.246-.544-.519-1.159-.728-1.757-.664zm614.35 0c-.6-.064-1.22.145-1.76.664-.85.813-.99 2.423-1.01 12.246-.04 10.743-.56 16.102-1.94 19.75-.34.896-.98 3.195-1.41 5.109-.43 1.913-1.23 4.791-1.77 6.395-2.88 8.554-4.4 19.821-4.12 30.41.37 13.747 1.72 16.787 8.79 19.796 2.05.874 2.63 1.399 4.83 4.423 2.22 3.037 3.14 7.557 3.46 16.887.49 14.61.67 15.55 3.76 19.46 1.47 1.88 3.09 3.68 3.59 4.02 1.42.94 2.96.72 4.64-.65l1.53-1.27-.42-10.29c-.75-18.37-1.42-30.689-1.76-32.429-.18-.937-.45-5.005-.6-9.04-.29-8.11-.98-10.146-3.9-11.565-2.08-1.016-6.01-1.03-8.35-.031-1 .424-3.53 1.738-5.63 2.919-2.09 1.182-3.94 2.149-4.09 2.149-.58 0 .27-20.228.89-21.56.36-.754.65-1.962.65-2.685s.68-3.719 1.52-6.658c.84-2.938 1.88-6.765 2.31-8.504.44-1.74 1.39-4.805 2.11-6.811 1.19-3.273 1.34-4.929 1.52-16.062.13-7.682-.03-13.115-.41-14.257-.49-1.448-1.44-2.31-2.43-2.416zm-163.35 20.712c2.084.16 5.557 1.569 9.264 3.94 6.886 4.402 9.511 9.788 9.473 19.433 0 4.178-.38 7.209-1.239 10.299a357.574 357.574 0 0 0-1.706 6.325c-.268 1.07-.893 2.821-1.388 3.892a392.317 392.317 0 0 0-1.661 3.648c-1.432 3.202-12.001 19.725-14.891 23.279-.894 1.099-1.625 2.091-1.625 2.202 0 .112-1.561 2.251-3.467 4.754s-3.651 5.046-3.88 5.646c-.227.6-.812 1.09-1.297 1.09-.486 0-.703-.23-.485-.52.956-1.28 2.015-10.58 2.026-17.799 0-6.887-.475-10.813-1.977-15.976-.669-2.301-3.305-8.03-5.217-11.336l-2.335-4.038 1.203-1.8c1.186-1.775 3.354-5.377 9.002-14.956 1.585-2.687 2.881-5.216 2.881-5.62 0-.403.242-.941.538-1.195.652-.559 4.781-9.32 4.781-10.144 0-.866.75-1.22 2-1.124zm-152.24 61.698c-5.019.105-11.258.928-14.444 2.164-1.686.654-3.206 1.19-3.378 1.19-.48 0-5.014 2.455-8.63 4.672-5.924 3.633-10.012 7.059-15.755 13.204-7.968 8.53-16.821 15.73-24.303 19.78-3.346 1.81-6.937 4.06-7.978 5-1.042.95-2.968 2.63-4.281 3.74-5.966 5.03-8.586 8.87-6.968 10.2 1.064.88 2.715.02 6.168-3.2 6.469-6.03 11.464-9.93 14.475-11.3 8.155-3.72 17.756-11.54 30.783-25.07 1.675-1.738 3.784-3.599 4.686-4.134.903-.535 3.12-1.976 4.925-3.203 8.346-5.669 15.129-8.137 22.963-8.357 3.496-.098 4.415.054 5.94.979 1.176.714 2.642 1.094 4.215 1.094s3.039-.38 4.215-1.094c1.524-.926 2.444-1.077 5.94-.979 7.834.22 14.617 2.688 22.963 8.357 1.806 1.227 4.022 2.668 4.925 3.203.902.535 3.012 2.396 4.687 4.134 13.027 13.53 22.627 21.35 30.782 25.07 3.015 1.37 8.005 5.27 14.499 11.32 4.253 3.97 6.098 4.48 6.419 1.77.189-1.58-2.346-4.66-7.243-8.79a182.068 182.068 0 0 1-4.282-3.74c-1.042-.94-4.631-3.19-7.978-5-7.481-4.05-16.333-11.25-24.302-19.78-5.743-6.145-9.83-9.571-15.754-13.204-3.616-2.217-8.152-4.672-8.632-4.672-.17 0-1.691-.536-3.377-1.19-5.098-1.978-18.011-2.897-21.237-1.512-1.411.607-1.838.607-3.25 0-1.209-.519-3.782-.715-6.793-.652zm-22.004 44.85c-1.08-.04-2.451.08-4.252.34-2.217.31-4.43.62-4.918.69-2.924.4-5.273.99-7.091 1.77-1.138.49-3.041 1.24-4.229 1.68s-3.316 1.78-4.728 2.98-3.561 2.52-4.775 2.94c-1.897.64-3.258 1.68-6.411 4.91-.329.34-1.482 1.98-2.561 3.66-1.861 2.89-2.323 4.01-3.044 7.4-.793 3.74-1.808 5.6-5.401 9.94-4.356 5.25-6.597 8.99-8.333 13.93-1.928 5.48-3.656 12.12-3.656 14.05 0 2.58 2.567 5.99 4.929 6.55 1.027.24 2.22.35 2.653.25a7.71 7.71 0 0 1 1.574-.2c1.366 0 5.034-3.34 6.293-5.73 2.988-5.68 4.827-10.53 6.127-16.17 1.622-7.02 3.381-11.21 6.437-15.32 1.893-2.55 3.848-6.72 4.209-9 .064-.4.264-1.06.447-1.46.181-.4.526-1.61.766-2.68.584-2.6.573-2.56 1.735-5.35 1.475-3.53 2.674-4.68 7.184-6.87 4.734-2.31 9.914-3.36 16.039-3.26 4.011.06 4.366-.01 4.958-1.08.499-.91.425-1.42-.341-2.38-.82-1.03-1.81-1.53-3.61-1.59zm60.844 0c-1.8.06-2.791.56-3.611 1.59-.767.96-.84 1.47-.339 2.38.591 1.06.946 1.14 4.957 1.08 6.125-.1 11.305.95 16.038 3.26 4.51 2.19 5.71 3.34 7.184 6.87 1.162 2.79 1.152 2.75 1.735 5.35.242 1.07.585 2.28.767 2.68s.383 1.06.447 1.46c.359 2.28 2.314 6.45 4.207 9 3.056 4.11 4.816 8.3 6.438 15.32 2.784 12.07 8.183 21.31 12.87 22.03 3.16.49 5.495-.42 7.189-2.8 1.852-2.6 1.902-4.35.284-10.17-3.005-10.81-4.955-14.75-10.757-21.74-3.593-4.34-4.607-6.2-5.4-9.94-.72-3.39-1.183-4.51-3.044-7.4-1.079-1.68-2.232-3.32-2.562-3.66-3.153-3.23-4.514-4.27-6.41-4.91-1.214-.42-3.363-1.74-4.775-2.94s-3.539-2.54-4.727-2.98c-1.189-.44-3.092-1.19-4.229-1.68-1.818-.78-4.167-1.37-7.091-1.77-.488-.07-2.701-.38-4.919-.69-1.801-.26-3.172-.38-4.252-.34zm-34.703 11.05c-1.616 0-3.401 1.35-3.401 2.57 0 2 2.431 7.63 3.582 8.29 1.46.84 7.194.75 8.489-.13.927-.63 3.293-6.43 3.293-8.07 0-1.27-1.73-2.66-3.298-2.66-1.513 0-3.793 2.08-3.793 3.47 0 .5-.265.91-.591.91-.325 0-.591-.41-.591-.91 0-1.34-2.264-3.47-3.69-3.47zm-22.554 12.65c-1.969 0-2.628.88-3.636 4.85-1.808 7.14.758 13.38 6.753 16.43 1.182.6 2.808 1.09 3.613 1.09 2.521.01 9.389 2.44 10.676 3.79 1.021 1.07 1.15 1.68.82 3.85-.268 1.77-.162 2.82.34 3.32 1.017 1 3.383.9 4.085-.18.322-.49.759-2.84.974-5.23.374-4.14.329-4.39-1.05-5.6-1.683-1.48-6.602-3.11-10.808-3.56-4.426-.48-7.824-2.01-9.109-4.1-1.666-2.7-2.02-6.17-.998-9.76 1.009-3.54.548-4.9-1.659-4.9zm53.671 0c-2.207 0-2.669 1.36-1.66 4.9 1.022 3.59.668 7.06-.998 9.76-1.285 2.09-4.683 3.62-9.109 4.1-4.206.45-9.124 2.08-10.808 3.56-1.377 1.21-1.424 1.46-1.05 5.6.216 2.39.653 4.74.975 5.23.321.5 1.206.9 1.967.9 2.221 0 2.9-1.11 2.456-4.04-.329-2.17-.2-2.78.82-3.85 1.287-1.35 8.154-3.78 10.676-3.79.805 0 2.431-.49 3.613-1.09 5.996-3.05 8.562-9.29 6.754-16.43-1.008-3.97-1.667-4.85-3.636-4.85zm-196 1.46c-2.151-.01-2.343.14-5.489 4.16-4.498 5.74-7.81 11.3-8.579 14.39-.355 1.44-.881 3.5-1.167 4.59-.732 2.78-.251 13.27.689 15.05 2.349 4.43 4.277 5.2 12.64 5.08 8.877-.13 10.76-.06 14.182.56 3.212.57 7.92 1.86 8.864 2.41.325.2 1.122.46 1.772.59.651.14 1.331.27 1.513.3 1.707.29 3.707-3.25 6.277-11.13 1.232-3.78 1.521-5.83 1.586-11.19.076-6.35.038-6.66-1.621-9.25-1.573-2.47-5.816-6.32-6.973-6.32-.276 0-2.69-1.14-5.368-2.53-6.659-3.45-15.557-6.71-18.326-6.71zm338.34 0c-2.769 0-11.665 3.26-18.325 6.71-2.677 1.39-5.094 2.53-5.368 2.53-1.157 0-5.4 3.85-6.973 6.32-1.644 2.59-1.697 2.9-1.62 9.25.064 5.36.354 7.41 1.585 11.19 2.002 6.14 3.729 9.84 4.929 10.57.937.57 3.345.39 4.633-.34.979-.56 5.718-1.84 8.864-2.4 3.423-.62 5.305-.69 14.182-.56 8.363.12 10.291-.65 12.64-5.08.94-1.78 1.422-12.27.69-15.05-.287-1.09-.812-3.15-1.168-4.59-.769-3.09-4.082-8.65-8.58-14.39-3.146-4.02-3.338-4.16-5.489-4.16zm-216.38 11.67c-2.322 0-5.063 2.73-6.011 5.98-1.029 3.53-.381 9.01 1.436 12.14 1.724 2.97 6.009 6.88 9.869 9.02 4.3 2.37 12.46 5.62 15.032 5.98 3.63.51 7.413.48 10.342-.08 6.386-1.2 10.043-3.91 7.908-5.86-1.265-1.15-2.094-1.14-4.455.04-1.041.52-2.091.85-2.335.72-.246-.12-.613 0-.817.27-.574.77-7.127.59-10.846-.3-4.466-1.06-10.687-3.67-12.457-5.24-.788-.69-1.664-1.26-1.948-1.26-.749 0-3.199-2.35-4.987-4.78-1.148-1.56-1.624-3-1.847-5.57-.28-3.23-.17-3.67 1.658-6.45 2.236-3.41 2.095-4.61-.542-4.61zm94.428 0c-2.636 0-2.777 1.2-.542 4.61 1.828 2.78 1.939 3.22 1.658 6.45-.223 2.57-.699 4.01-1.847 5.57-1.787 2.43-4.238 4.78-4.987 4.78-.283 0-1.16.57-1.948 1.26-1.769 1.57-7.992 4.18-12.456 5.24-3.72.89-10.273 1.07-10.847.3-.204-.27-.572-.39-.816-.27-.246.13-1.296-.2-2.337-.72-2.36-1.18-3.189-1.19-4.454-.04-2.077 1.89 1.44 4.59 7.65 5.88 1.28.26 4.544.37 7.256.24 4.376-.2 5.528-.48 10.28-2.44 7.023-2.9 10.181-4.68 13.635-7.7 3.898-3.4 5.739-6.75 6.146-11.18.412-4.48-.542-7.88-2.866-10.2-1.315-1.32-2.232-1.78-3.525-1.78zm-217.76 7.4c1.983.12 2.498.36 2.943 1.41.797 1.88.001 3.72-1.973 4.56-2.272.97-2.737.94-4.225-.29-.969-.8-1.172-1.4-.914-2.72.493-2.5 1.385-3.13 4.169-2.96zm341.09 0c2.784-.17 3.676.46 4.169 2.96.257 1.32.053 1.92-.914 2.72-1.461 1.2-2.153 1.25-4.344.27-1.865-.83-2.631-2.71-1.854-4.54.445-1.05.96-1.29 2.943-1.41zm-318.29 2.83c.317-.01.533.22.948.69 1.025 1.15 1.094 3.27.132 4.07-.971.79-3.131.73-3.992-.12-1.084-1.08-.505-2.74 1.349-3.87.825-.51 1.245-.76 1.563-.77zm295.5 0c.318.01.738.26 1.563.77 1.853 1.13 2.433 2.79 1.349 3.87-.861.85-3.022.92-3.992.12-.963-.8-.895-2.92.132-4.07.414-.47.63-.7.948-.69zm-154.42 25.51c-.591-.1-1.088.12-1.927.77-1.384 1.07-1.395 1.16-1.152 9.41.137 4.58.258 8.8.273 9.39 0 .58.443 1.4.954 1.82 1.149.95 2.057.97 3.538.08 1.258-.76 1.289-1.15.92-11.72-.264-7.56-.542-8.91-1.966-9.54a2.336 2.336 0 0 0-.638-.21zm13.344 0c-.196.03-.404.1-.638.21-1.425.63-1.703 1.98-1.967 9.54-.366 10.57-.336 10.96.921 11.72.631.37 1.476.69 1.878.69 1.149 0 2.587-1.43 2.614-2.59 0-.59.136-4.81.272-9.39.242-8.25.235-8.34-1.15-9.41-.84-.65-1.337-.87-1.928-.77zm-19.082 26.37c-11.072-.06-19.675.46-21.783 1.32-.857.35-3.155 1-5.107 1.44-1.952.43-4.601 1.23-5.886 1.77-1.286.54-2.642.99-3.013.99-.74 0-12.439 3.96-14.943 5.07-.86.37-4.091 1.67-7.179 2.87s-7.342 3.08-9.454 4.18c-2.113 1.09-4.241 2.13-4.728 2.3-3.243 1.12-9.23 3.64-13.001 5.47-11.438 5.56-22.041 9.56-30.137 11.37-9.509 2.12-13.114 2.75-18.582 3.28-7.768.75-7.29 2.86 2.306 10.21 2.617 2.01 5.822 4.72 7.12 6.02 1.299 1.3 4.089 3.33 6.201 4.5 2.113 1.18 4.905 2.78 6.205 3.57 2.448 1.48 5.358 2.19 10.936 2.69 2.763.25 3.397.5 4.205 1.66.797 1.14 1.252 1.33 2.803 1.14 1.79-.22 2.245.24 1.924 1.95-.038.19.31 1.18.774 2.19.463 1 .974 3.14 1.135 4.75.291 2.9 2.606 12.9 4.277 18.48 1.271 4.25 1.927 5.11 3.875 5.11 2.273 0 3.25-1.46 3.736-5.59.743-6.32.906-7.29 2.13-12.65.671-2.95 1.34-5.85 1.486-6.45.189-.78.684-1.09 1.732-1.09.806 0 1.466.16 1.466.36 0 .47 2.773 1.49 6.375 2.34 4.95 1.18 32.83 8.96 35.876 10.02 1.625.56 3.487 1.19 4.137 1.39 9.239 2.85 10.147 3.25 17.025 7.41 2.54 1.54 4.74 2.8 4.89 2.8.151 0 1.943.87 3.984 1.93 4.614 2.4 9.676 3.45 13.924 2.9 4.441-.58 5.276-.84 9.357-2.94 2.024-1.04 3.803-1.89 3.953-1.89.151 0 2.351-1.26 4.891-2.8 6.856-4.15 8.015-4.65 17.024-7.41.65-.19 2.243-.74 3.54-1.2 1.297-.47 9.009-2.68 17.138-4.91 8.128-2.24 15.926-4.41 17.329-4.83s2.798-.63 3.102-.48c.967.49.424 14.38-.993 25.39-.276 2.14-.17 3.25.355 3.77.904.9 2.391.95 3.744.13.98-.59 3.189-4.91 6.033-11.79.773-1.88 2.353-5.38 3.51-7.79 1.156-2.41 2.925-7 3.93-10.21 1.004-3.22 2.264-6.19 2.798-6.61 2.126-1.68 12.147-4.76 17.198-5.28 5.085-.53 8.628-1.68 11.252-3.67.813-.62 2.94-1.89 4.728-2.82s4.312-2.76 5.61-4.07c1.299-1.3 4.503-4.01 7.12-6.02 9.596-7.35 10.073-9.46 2.305-10.21-5.468-.53-9.072-1.16-18.581-3.28-8.096-1.81-18.699-5.81-30.137-11.37-3.77-1.83-9.758-4.36-13.001-5.47-.487-.17-2.614-1.21-4.727-2.3-2.113-1.1-6.368-2.98-9.455-4.18-3.088-1.2-6.319-2.5-7.179-2.87-2.504-1.11-14.203-5.07-14.943-5.07-.37 0-1.726-.45-3.012-.99s-3.935-1.34-5.887-1.77c-1.952-.44-4.249-1.09-5.106-1.44-2.108-.86-10.712-1.38-21.784-1.32-11.38.06-13.439.06-24.819 0zm-4.727 4.35c7.065-.04 9.072.11 11.438.86l2.869.91-.306 3.23c-.456 4.82-2.462 12.02-4.428 15.91-2.806 5.54-6.306 10.4-8.636 11.99-2.099 1.43-1.618 1.87-6.477-6.01-5.847-9.5-9.475-12.62-19.724-17.01-3.494-1.49-6.31-2.91-6.259-3.14.162-.76 9.03-3.6 16.106-5.17 6.085-1.35 7.8-1.52 15.415-1.57zm34.274 0c7.615.05 9.33.22 15.415 1.57 7.377 1.63 16.018 4.44 16.012 5.21 0 .26-2.819 1.67-6.26 3.14-10.316 4.41-13.808 7.49-20.119 17.7-1.976 3.21-3.855 5.89-4.173 5.97-1.927.49-6.738-5.35-10.45-12.68-1.967-3.89-3.972-11.09-4.427-15.91l-.306-3.23 2.869-.91c2.366-.75 4.373-.9 11.437-.86zm62.604 19.53c1.703-.11 11.968 3.9 17.859 7.03l3.345 1.78.321 3.08c.177 1.69.486 4.06.686 5.26.416 2.5-2.557 14.33-5.909 23.51-1.092 2.99-2.692 8-3.552 11.13-.881 3.21-2.306 6.82-3.258 8.27-.93 1.42-2.278 3.62-2.995 4.89-1.509 2.68-2.326 2.95-2.326.78 0-.87-.428-1.78-1.003-2.13-.925-.55-.944-1.09-.235-6.86 1.241-10.08.735-30.26.477-34.47-.148-2.39-.208-3.01-.23-4.54 0-1 .321-2.55-.69-7.06-.729-3.26-1.697-6.9-2.152-8.08-.455-1.19-.706-2.32-.559-2.52.037-.04.109-.07.222-.07zm-159.69.06c.246-.04.397-.03.434.02.144.19-.11 1.32-.565 2.51s-1.366 4.78-2.025 8c-.659 3.21-1.627 7.87-2.152 10.35-.193 4.86-1.803 9.62-2.61 14.1-1.186 3.13-1.185 2.52-1.185 3.13 0 2.53-1.792 10.62-3.143 14.25-.795 2.15-1.898 5.59-2.45 7.67-.552 2.07-1.227 3.77-1.498 3.77-.272 0-.683-.71-.914-1.58-.23-.86-.752-2.01-1.158-2.55s-.9-2.35-1.096-4.03c-.197-1.67-.735-3.53-1.195-4.13-1.241-1.62-1.428-2.74-3.025-18.12-1.696-16.33-1.797-19.59-.646-20.95.456-.53.922-1.49 1.035-2.13.208-1.17 3.419-3.1 10.243-6.14 3.907-1.74 10.231-3.92 11.95-4.17zm-35.764 14.66c.102 0 .273 1.69.375 3.74.102 2.06.445 4.14.759 4.62.784 1.21.038 1.1-2.582-.35-1.941-1.09-4.57-4.25-4.57-5.5 0-.35 5.213-2.52 6.019-2.51zm231.43 0c.805-.01 6.019 2.16 6.019 2.51 0 1.25-2.628 4.41-4.57 5.5-2.602 1.45-3.366 1.56-2.582.35.314-.48.656-2.56.759-4.62.102-2.05.272-3.74.374-3.74z" />
  </svg>