<svg width="1599" height="1870" viewBox="0 0 1599 1870" fill="none" xmlns="http://www.w3.org/2000/svg">
<path fill-rule="evenodd" clip-rule="evenodd" d="M1198.41 1402.02L1597.85 934.967L1598.06 934.967L1597.96 934.842L1598.06 934.718L1597.85 934.718L1198.42 467.671L798.768 0.374023L399.721 467.905L1.68758 934.25L0.673828 934.249L1.18083 934.843L0.674591 935.436L1.68682 935.436L399.72 1401.78L798.767 1869.31L1198.41 1402.02ZM1167.56 1365.89L1532.06 939.685L1532.25 939.685L1532.16 939.571L1532.25 939.458L1532.06 939.458L1167.56 513.253L802.858 86.8212L438.708 513.467L75.4816 939.03L74.558 939.03L75.0199 939.571L74.558 940.112L75.4816 940.112L438.708 1365.68L802.858 1792.32L1167.56 1365.89Z" fill="#1F231A"/>
<path fill-rule="evenodd" clip-rule="evenodd" d="M1152.39 1348.13L1501.71 939.68L1501.9 939.68L1501.8 939.571L1501.9 939.461L1501.71 939.461L1152.39 531.01L802.88 122.339L453.898 531.215L105.802 939.052L104.915 939.051L105.358 939.571L104.915 940.09L105.802 940.09L453.898 1347.93L802.88 1756.8L1152.39 1348.13ZM1138.35 1331.7L1473.62 939.674L1473.8 939.674L1473.71 939.57L1473.8 939.466L1473.62 939.466L1138.35 547.441L802.899 155.207L467.953 547.637L133.855 939.073L133.006 939.073L133.43 939.57L133.006 940.068L133.855 940.068L467.953 1331.5L802.899 1723.93L1138.35 1331.7Z" fill="#1F231A"/>
<path fill-rule="evenodd" clip-rule="evenodd" d="M430.008 940.797H186.302L196.406 953.075H431.238C430.787 948.782 430.375 944.657 430.008 940.797ZM1188.19 953.075C1188.6 948.772 1188.97 944.645 1189.29 940.797H1422.34L1412.22 953.075H1188.19ZM434.748 983.163H221.168L237.573 1003.1H437.536C436.57 996.771 435.633 990.018 434.748 983.163ZM1182.39 1003.1C1183.3 996.792 1184.17 990.033 1184.99 983.163H1387.41L1370.97 1003.1H1182.39ZM443.405 1033.05H262.226L288.626 1065.13H459.875C458.733 1062.67 458.066 1061.06 458.066 1061.06C453.62 1060.17 447.073 1040.11 447.073 1040.11C445.913 1039.98 444.674 1037.4 443.405 1033.05ZM1158.49 1065.13C1159.19 1062.93 1159.58 1061.51 1159.58 1061.51C1164.02 1060.63 1173.44 1038.48 1173.44 1038.48C1174.46 1038.36 1175.51 1036.4 1176.57 1033.05H1346.27L1319.81 1065.13H1158.49ZM501.867 1095.24H313.407L351.195 1141.16H475.632C480.027 1135.67 495.064 1108.88 501.867 1095.24ZM482.413 1141.16H522.32C523.671 1137.42 524.604 1134.47 524.638 1133.37C524.711 1131.02 507.268 1135.22 492.963 1138.67C489.077 1139.6 485.422 1140.48 482.413 1141.16ZM511.299 1171.2H375.919L429.029 1235.74H614.231C613.251 1232.35 612.412 1228.13 611.536 1223.72C610.422 1218.11 609.246 1212.19 607.637 1207.27C604.757 1204.43 592.708 1207.87 581.297 1211.13C571.2 1214.01 561.603 1216.76 559.3 1214.87C556.495 1212.58 557.65 1200.79 558.69 1190.18C559.47 1182.22 560.185 1174.91 559.118 1172.76C556.628 1167.74 517.301 1184.51 513.419 1188.26C509.536 1192.01 510.126 1181.57 510.126 1181.57L511.299 1171.2ZM651.804 1235.74H666.6C666.556 1235.67 666.515 1235.61 666.476 1235.56C665.233 1233.72 659.194 1234.29 651.804 1235.74ZM920.097 1265.85C925.204 1267.05 929.474 1268.27 929.474 1268.27C929.474 1268.27 930.075 1267.36 931.077 1265.85H1154.3L1113.31 1315.56L1085.27 1349.57H522.706L494.566 1315.37L453.807 1265.85H686.928C687.873 1267.25 688.433 1268.08 688.433 1268.08C688.433 1268.08 692.472 1267 697.534 1265.85H721.496C722.288 1266.22 723.158 1266.62 724.09 1267.05C731.987 1270.7 744.303 1276.39 750.956 1282.73C760.502 1291.84 797.824 1274.62 797.824 1274.62L821.644 1274.81C821.644 1274.81 858.536 1291.2 868.082 1282.1C874.656 1275.83 887.459 1270.71 895.8 1267.38C897.21 1266.82 898.493 1266.31 899.597 1265.85H920.097ZM951.141 1235.74C952.781 1234.23 958.638 1234.61 965.754 1235.74H951.141ZM1004.4 1235.74C1005.53 1232.29 1006.48 1227.84 1007.48 1223.15C1008.59 1217.94 1009.77 1212.44 1011.31 1207.73C1012.87 1203.61 1025.99 1207.27 1038.23 1210.7C1048.13 1213.47 1057.46 1216.08 1059.65 1214.28C1062.44 1212 1060.9 1200.44 1059.5 1189.96C1058.43 1181.97 1057.45 1174.6 1058.53 1172.43C1061.02 1167.41 1095.14 1179.76 1099.02 1183.51C1102.9 1187.26 1108.3 1188.53 1108.3 1188.53L1106.74 1172.14C1106.91 1172.03 1106.98 1171.71 1106.95 1171.2H1232.35L1179.13 1235.74H1004.4ZM1097.11 1141.16C1095.93 1137.71 1095.12 1135.08 1095.09 1134.08C1095.02 1131.74 1112.53 1135.82 1126.96 1139.19C1130 1139.9 1132.91 1140.58 1135.48 1141.16H1097.11ZM1144.23 1141.16C1139.18 1134.75 1123.21 1108.67 1115.68 1095.24H1294.99L1257.12 1141.16H1144.23ZM641.654 1494.11L547.319 1379.48H1060.6L966.078 1494.11H641.654ZM795.701 1681.29L666.163 1523.89H941.519L811.723 1681.29H795.701Z" fill="#1F231A"/>
<path fill-rule="evenodd" clip-rule="evenodd" d="M1166.27 943.537L1420.1 943.46L1112.49 567.997L804.878 192.535L497.731 568.185L190.585 943.836L444.399 943.758C448.409 853.732 485.95 768.236 549.945 704.277C617.491 636.77 709.015 598.748 804.511 598.521C900.295 598.309 992.243 636.137 1060.15 703.692C1124.44 767.653 1162.2 853.307 1166.27 943.537Z" fill="#1F231A"/>
<path d="M1420.1 943.46L1420.1 946.915C1421.43 946.914 1422.65 946.144 1423.22 944.938C1423.79 943.731 1423.61 942.303 1422.77 941.27L1420.1 943.46ZM1166.27 943.537L1162.82 943.693C1162.9 945.539 1164.42 946.993 1166.27 946.992L1166.27 943.537ZM1112.49 567.997L1109.81 570.187L1112.49 567.997ZM804.878 192.535L807.55 190.345C806.894 189.544 805.912 189.079 804.876 189.08C803.84 189.08 802.859 189.546 802.203 190.348L804.878 192.535ZM497.731 568.185L495.057 565.998L497.731 568.185ZM190.585 943.836L187.91 941.649C187.065 942.683 186.891 944.11 187.463 945.317C188.035 946.523 189.251 947.291 190.586 947.291L190.585 943.836ZM444.399 943.758L444.4 947.213C446.248 947.213 447.768 945.758 447.851 943.912L444.399 943.758ZM549.945 704.277L547.503 701.833L549.945 704.277ZM804.511 598.521L804.504 595.066H804.503L804.511 598.521ZM1060.15 703.691L1062.58 701.242L1060.15 703.691ZM1420.09 940.005L1166.27 940.082L1166.27 946.992L1420.1 946.915L1420.09 940.005ZM1109.81 570.187L1417.42 945.649L1422.77 941.27L1115.16 565.808L1109.81 570.187ZM802.205 194.724L1109.81 570.187L1115.16 565.808L807.55 190.345L802.205 194.724ZM500.406 570.372L807.552 194.722L802.203 190.348L495.057 565.998L500.406 570.372ZM193.26 946.023L500.406 570.372L495.057 565.998L187.91 941.649L193.26 946.023ZM444.398 940.303L190.584 940.381L190.586 947.291L444.4 947.213L444.398 940.303ZM547.503 701.833C482.896 766.404 444.996 852.718 440.948 943.605L447.851 943.912C451.822 854.747 489.004 770.068 552.387 706.721L547.503 701.833ZM804.503 595.066C708.094 595.295 615.694 633.681 547.503 701.833L552.387 706.721C619.287 639.859 709.936 602.201 804.52 601.975L804.503 595.066ZM1062.58 701.242C994.03 633.042 901.203 594.852 804.504 595.066L804.519 601.975C899.387 601.766 990.455 639.232 1057.71 706.141L1062.58 701.242ZM1169.72 943.381C1165.61 852.289 1127.49 765.816 1062.58 701.242L1057.71 706.141C1121.39 769.491 1158.78 854.326 1162.82 943.693L1169.72 943.381Z" fill="#1F231A"/>
<path d="M537.106 733.296C531.797 733.422 525.757 734.777 521.698 737.062C516.946 739.736 507.468 748.204 507.468 749.775C507.468 749.92 506.071 751.702 504.364 753.737C502.658 755.771 500.997 757.802 500.672 758.249C500.347 758.697 499.651 759.612 499.125 760.282C498.599 760.952 497.285 762.923 496.205 764.662C495.124 766.402 492.563 770.074 490.512 772.824C488.462 775.573 486.784 777.992 486.784 778.198C486.784 778.661 485.465 780.108 482.208 783.216C480.828 784.533 479.238 786.205 478.675 786.933C478.111 787.662 476.44 789.572 474.961 791.177C470.336 796.198 463.738 805.815 463.738 807.536C463.738 807.93 463.504 808.461 463.219 808.715C462.931 808.969 462.367 810.053 461.96 811.124C461.553 812.194 461.012 813.289 460.756 813.557C459.982 814.369 455.469 824.2 455.469 825.082C455.469 825.535 455.223 826.028 454.926 826.179C454.627 826.33 454.199 827.384 453.971 828.519C453.74 829.655 453.318 830.957 453.028 831.412C452.737 831.867 451.438 835.479 450.14 839.439C447.034 848.915 446.817 849.544 445.46 852.963C442.611 860.143 440.717 864.034 439.353 865.506C438.087 866.873 436.948 868.967 434.12 875.132C433.289 876.942 430.718 885.45 429.719 889.695C429.246 891.702 428.603 893.715 428.29 894.168C427.977 894.622 427.436 897.03 427.087 899.52C426.739 902.01 426.197 905.032 425.885 906.236C424.307 912.324 424.062 921.898 424.974 941.751C425.25 947.772 425.46 953.026 425.438 953.427C425.4 953.829 425.645 955.58 425.948 957.319C426.251 959.059 426.641 961.576 426.818 962.914C426.992 964.252 427.382 966.113 427.682 967.049C427.981 967.986 428.403 969.847 428.615 971.185C428.827 972.523 429.202 973.946 429.447 974.347C429.693 974.749 430.068 976.69 430.281 978.66C430.492 980.631 431.036 983.586 431.486 985.228C434.195 995.114 435.13 1001.07 434.783 1006.21C434.473 1010.8 436.122 1020.14 438.078 1024.88C438.584 1026.11 439.215 1028.43 439.479 1030.04C440.766 1037.87 445.623 1051.1 449.61 1057.65C450.634 1059.33 452.715 1061.8 454.234 1063.13C456.712 1065.32 457.136 1066.04 458.362 1070.19C459.114 1072.73 460.632 1076.38 461.734 1078.29C462.837 1080.21 463.738 1081.91 463.738 1082.08C463.738 1082.8 468.51 1087.62 471.184 1089.6C472.776 1090.78 475.409 1092.24 477.034 1092.85C480.922 1094.3 488.959 1094.73 495.058 1093.83C497.495 1093.46 499.677 1093.31 499.907 1093.48C501.039 1094.33 491.594 1112.26 486.641 1118.66C485.787 1119.76 484.658 1121.52 484.133 1122.55C483.608 1123.59 482.13 1125.76 480.847 1127.39C479.562 1129.01 478.512 1130.47 478.512 1130.62C478.512 1131.41 472.086 1138.66 468.762 1141.63C465.948 1144.14 465.306 1145.35 466.122 1146.6C467.262 1148.36 469.298 1148.25 475.902 1146.09C483.896 1143.48 487.48 1142.66 498.012 1141.02C502.725 1140.29 508.951 1139.18 511.847 1138.55C514.744 1137.93 517.47 1137.53 517.905 1137.67C519.037 1138.02 518.893 1139.23 517.217 1143.45C516.405 1145.5 515.741 1147.39 515.741 1147.65C515.741 1147.91 515.359 1148.82 514.893 1149.66C513.072 1152.95 510.27 1164.09 509.526 1170.99C509.315 1172.94 508.785 1176.19 508.348 1178.19C507.91 1180.2 507.381 1184.14 507.169 1186.95C506.957 1189.76 506.548 1192.8 506.263 1193.71C505.68 1195.56 506.263 1196.87 508.033 1197.64C510.952 1198.93 513.414 1197.55 514.493 1194.02C516.232 1188.33 527.238 1181.33 538.196 1178.92C540.308 1178.46 543.233 1177.79 544.695 1177.44C550.268 1176.09 552.305 1175.76 554.958 1175.76C558.086 1175.76 558.213 1176.02 556.862 1179.69C555.55 1183.25 554.734 1191.74 554.618 1203.01C554.448 1219.75 555.047 1222.47 558.93 1222.47C560.152 1222.47 561.113 1221.92 562.686 1220.34C565.364 1217.65 569.905 1215.69 577.788 1213.8C591.81 1210.46 601.509 1209.87 605.346 1212.12L607.198 1213.21L606.94 1217.92C606.801 1220.51 606.997 1224.18 607.379 1226.07C607.761 1227.97 608.171 1230.4 608.289 1231.47C608.41 1232.54 608.941 1234.4 609.472 1235.6C610.82 1238.65 615.503 1246.37 616.63 1247.4C618.236 1248.86 620.899 1248.47 623.564 1246.38C626.998 1243.68 632.415 1242.03 648.7 1238.73C653.864 1237.68 662.406 1237.83 665.595 1239.03C668.593 1240.15 669.055 1240.82 671.46 1247.52C672.914 1251.57 677.957 1260.67 679.685 1262.36C680.096 1262.76 680.574 1263.43 680.749 1263.84C680.923 1264.25 682.592 1266.05 684.454 1267.85C688.423 1271.68 690.261 1272.09 692.931 1269.74C698.117 1265.17 709.882 1264.37 718.339 1268C719.201 1268.38 720.257 1268.68 720.683 1268.68C721.917 1268.68 727.828 1271.14 732.147 1273.44C734.328 1274.61 738.316 1277.48 741.01 1279.84C746.725 1284.83 750.204 1286.56 755.673 1287.1C757.777 1287.31 761.095 1287.39 763.045 1287.28C767.193 1287.06 775.66 1285.46 777.978 1284.46C778.865 1284.08 779.811 1283.77 780.082 1283.77C780.35 1283.77 781.975 1283 783.689 1282.06C785.403 1281.13 787.158 1280.36 787.589 1280.36C788.373 1280.36 788.942 1280.22 795.547 1278.46C800.43 1277.16 809.224 1275.81 810.404 1276.18C810.939 1276.35 813.266 1276.71 815.576 1276.98C817.885 1277.25 821.37 1277.9 823.32 1278.44C829.388 1280.1 830.471 1280.36 831.279 1280.36C831.709 1280.36 833.465 1281.13 835.178 1282.06C836.892 1283 838.474 1283.77 838.695 1283.77C838.914 1283.77 839.935 1284.08 840.959 1284.47C846.703 1286.64 856.185 1287.77 862.978 1287.09C868.802 1286.51 872.289 1284.81 878.027 1279.74C880.631 1277.44 884.545 1274.6 886.724 1273.44C891.04 1271.14 896.95 1268.69 898.184 1268.68C898.61 1268.68 899.665 1268.38 900.527 1268C908.984 1264.37 920.75 1265.17 925.936 1269.74C928.606 1272.09 930.445 1271.68 934.413 1267.85C936.275 1266.05 937.943 1264.25 938.118 1263.84C938.292 1263.43 938.771 1262.76 939.182 1262.36C940.91 1260.67 945.953 1251.57 947.407 1247.52C949.812 1240.82 950.273 1240.15 953.271 1239.03C956.46 1237.83 965.002 1237.68 970.166 1238.73C986.452 1242.03 991.87 1243.68 995.303 1246.38C997.968 1248.47 1000.63 1248.86 1002.24 1247.4C1003.37 1246.37 1008.05 1238.65 1009.39 1235.6C1009.93 1234.4 1010.46 1232.54 1010.58 1231.47C1010.69 1230.4 1011.11 1227.97 1011.49 1226.07C1011.87 1224.18 1012.07 1220.51 1011.93 1217.92L1011.67 1213.21L1013.52 1212.12C1017.36 1209.87 1027.06 1210.46 1041.08 1213.8C1048.96 1215.69 1053.5 1217.65 1056.18 1220.34C1057.75 1221.92 1058.71 1222.47 1059.94 1222.47C1063.82 1222.47 1064.42 1219.76 1064.25 1203.01C1064.13 1191.74 1063.32 1183.25 1062.01 1179.69C1060.65 1176.03 1060.78 1175.76 1063.91 1175.76C1066.56 1175.76 1068.6 1176.09 1074.17 1177.44C1075.63 1177.79 1078.56 1178.46 1080.67 1178.92C1091.63 1181.33 1102.64 1188.33 1104.37 1194.02C1105.45 1197.55 1107.92 1198.93 1110.83 1197.64C1112.6 1196.87 1113.19 1195.56 1112.6 1193.71C1112.32 1192.8 1111.91 1189.76 1111.7 1186.95C1111.49 1184.14 1110.96 1180.2 1110.52 1178.19C1110.08 1176.19 1109.55 1172.95 1109.34 1170.99C1108.6 1164.09 1105.8 1152.95 1103.97 1149.66C1103.51 1148.82 1103.13 1147.91 1103.13 1147.65C1103.13 1147.39 1102.46 1145.5 1101.65 1143.46C1099.97 1139.23 1099.83 1138.03 1100.96 1137.67C1101.4 1137.53 1104.12 1137.93 1107.02 1138.55C1109.92 1139.18 1116.14 1140.29 1120.85 1141.02C1131.39 1142.66 1134.97 1143.48 1142.97 1146.09C1149.57 1148.25 1151.61 1148.36 1152.75 1146.6C1153.56 1145.35 1152.92 1144.14 1150.11 1141.63C1146.78 1138.66 1140.36 1131.41 1140.36 1130.62C1140.36 1130.47 1139.3 1129.01 1138.02 1127.39C1136.74 1125.76 1135.26 1123.59 1134.73 1122.55C1134.21 1121.52 1133.08 1119.76 1132.23 1118.66C1127.27 1112.26 1117.83 1094.33 1118.96 1093.48C1119.19 1093.31 1121.37 1093.46 1123.81 1093.83C1129.91 1094.73 1137.94 1094.3 1141.83 1092.85C1143.46 1092.24 1146.09 1090.78 1147.68 1089.6C1150.36 1087.62 1155.13 1082.81 1155.13 1082.08C1155.13 1081.91 1156.03 1080.21 1157.13 1078.29C1158.24 1076.38 1159.75 1072.73 1160.5 1070.19C1161.73 1066.04 1162.16 1065.32 1164.63 1063.13C1166.15 1061.8 1168.23 1059.33 1169.26 1057.65C1173.24 1051.1 1178.1 1037.87 1179.39 1030.04C1179.65 1028.43 1180.28 1026.11 1180.79 1024.88C1182.74 1020.14 1184.39 1010.8 1184.08 1006.21C1183.74 1001.07 1184.67 995.114 1187.38 985.228C1187.83 983.586 1188.37 980.631 1188.59 978.66C1188.8 976.69 1189.17 974.749 1189.42 974.347C1189.67 973.946 1190.04 972.523 1190.25 971.185C1190.46 969.847 1190.88 967.986 1191.18 967.05C1191.48 966.113 1191.87 964.252 1192.05 962.914C1192.22 961.576 1192.62 959.059 1192.92 957.319C1193.22 955.58 1193.45 953.829 1193.43 953.427C1193.39 953.026 1193.62 947.772 1193.89 941.751C1194.81 921.898 1194.56 912.324 1192.98 906.236C1192.67 905.032 1192.13 902.01 1191.78 899.52C1191.43 897.03 1190.89 894.622 1190.58 894.168C1190.26 893.715 1189.62 891.702 1189.15 889.695C1188.15 885.45 1185.58 876.942 1184.75 875.132C1181.92 868.967 1180.78 866.873 1179.51 865.506C1178.15 864.034 1176.26 860.143 1173.41 852.964C1172.05 849.545 1171.83 848.915 1168.73 839.439C1167.43 835.479 1166.13 831.867 1165.84 831.412C1165.55 830.957 1165.12 829.655 1164.9 828.519C1164.67 827.384 1164.24 826.33 1163.94 826.179C1163.64 826.028 1163.4 825.535 1163.4 825.082C1163.4 824.2 1158.89 814.369 1158.11 813.557C1157.85 813.289 1157.31 812.194 1156.91 811.124C1156.5 810.054 1155.93 808.97 1155.65 808.716C1155.36 808.462 1155.13 807.93 1155.13 807.536C1155.13 805.815 1148.53 796.199 1143.91 791.177C1142.43 789.572 1140.76 787.662 1140.19 786.933C1139.63 786.205 1138.04 784.533 1136.66 783.216C1133.4 780.108 1132.08 778.661 1132.08 778.198C1132.08 777.992 1130.41 775.574 1128.35 772.825C1126.3 770.075 1123.74 766.402 1122.66 764.662C1121.58 762.923 1120.27 760.952 1119.74 760.282C1119.22 759.612 1118.52 758.697 1118.2 758.249C1117.87 757.802 1116.21 755.771 1114.5 753.737C1112.8 751.703 1111.4 749.92 1111.4 749.775C1111.4 748.204 1101.92 739.736 1097.17 737.062C1090.67 733.407 1079.11 732.131 1073.58 734.46C1066.99 737.235 1059.31 743.127 1056.24 747.758C1055.84 748.359 1054.26 750.422 1052.73 752.342C1051.2 754.262 1049.94 755.951 1049.94 756.096C1049.94 756.241 1048.38 758.283 1046.48 760.633C1043.49 764.32 1035.76 776.515 1035.76 777.541C1035.76 777.735 1035.39 778.585 1034.94 779.428C1034.49 780.271 1033.01 783.15 1031.65 785.825C1030.29 788.501 1028.94 791.128 1028.65 791.664C1027.16 794.439 1026.35 796.449 1025.74 798.859C1025.13 801.279 1016.46 816.148 1013.9 819.151C1013.34 819.82 1011.99 821.791 1010.92 823.53C1009.84 825.269 1008.52 827.239 1007.98 827.908C1007.44 828.577 1005.73 831.095 1004.17 833.503C999.539 840.698 996.943 844.072 994.068 846.639C992.569 847.977 989.942 850.713 988.229 852.72C985.661 855.728 976.685 863.252 970.527 867.559C967.993 869.331 956.525 878.211 952.69 881.37C948.49 884.829 948.071 884.834 945.939 881.457C945.337 880.502 944.094 879.045 943.176 878.217C942.259 877.39 940.438 875.748 939.132 874.569C934.204 870.119 929.752 867.235 924.888 865.341C920.383 863.588 919.544 863.424 915.074 863.429C912.386 863.433 908.725 863.775 906.938 864.191C901.771 865.393 901.878 865.421 902.18 862.937C903.11 855.278 901.75 841.778 899.703 838.368C899.061 837.298 898.183 835.218 897.752 833.747C897.32 832.275 896.668 830.086 896.304 828.881C895.402 825.899 891.247 818.853 888.99 816.476C886.582 813.941 878.652 807.475 877.952 807.475C877.653 807.475 876.112 806.818 874.527 806.016C872.943 805.213 871.332 804.556 870.948 804.556C870.565 804.556 868.069 803.664 865.401 802.573C862.392 801.343 857.52 799.966 852.572 798.945C842.845 796.939 841.793 796.823 838.408 797.372C834.309 798.038 833.634 798.124 829.821 798.46C823.382 799.026 810.431 801.217 805.297 802.608C801.324 803.685 799.085 804.468 791.115 807.567C787.702 808.894 783.979 810.332 782.842 810.763C781.704 811.193 779.662 812.162 778.304 812.916C776.945 813.67 775.549 814.286 775.201 814.286C774.854 814.286 774.569 814.505 774.569 814.773C774.569 815.04 774.263 815.259 773.886 815.259C773.511 815.259 772.331 815.807 771.266 816.476C770.201 817.144 769.148 817.692 768.926 817.692C768.257 817.692 762.512 821.251 761.682 822.179C761.258 822.654 760.566 823.043 760.144 823.043C759.722 823.043 758.721 823.536 757.919 824.138C757.117 824.74 754.939 826.087 753.078 827.132C751.217 828.177 749.431 829.436 749.11 829.93C748.789 830.423 748.182 830.828 747.762 830.828C747.342 830.828 745.524 832.086 743.72 833.625C741.917 835.164 739.677 836.996 738.743 837.698C734.041 841.228 725.835 848.756 721.089 853.893C714.928 860.562 712.521 863.335 712.521 863.763C712.521 863.93 710.98 865.729 709.096 867.759C706.139 870.947 701.293 877.186 701.293 877.808C701.293 877.921 700.33 879.712 699.152 881.787C697.028 885.529 690.838 898.889 689.064 903.56C688.556 904.898 687.56 907.197 686.851 908.669C686.143 910.14 684.921 912.932 684.136 914.872C683.35 916.812 682.501 918.399 682.25 918.399C681.996 918.399 681.773 916.812 681.748 914.872C681.687 910.17 681.317 907.551 680.223 904.047C679.722 902.441 679.232 900.793 679.134 900.384C679.036 899.975 678.011 897.625 676.855 895.162C674.274 889.658 670.658 885.016 665.963 881.178C662.163 878.071 650.66 869.181 648.341 867.559C642.183 863.252 633.207 855.729 630.639 852.72C628.926 850.714 626.299 847.977 624.8 846.639C621.925 844.072 619.329 840.698 614.693 833.503C613.142 831.095 611.429 828.577 610.889 827.908C610.349 827.24 609.027 825.269 607.952 823.53C606.876 821.791 605.532 819.82 604.964 819.151C602.411 816.148 593.737 801.279 593.127 798.859C592.519 796.449 591.706 794.439 590.213 791.664C589.926 791.128 588.578 788.501 587.219 785.826C585.859 783.15 584.377 780.271 583.926 779.428C583.476 778.585 583.107 777.735 583.107 777.541C583.107 776.515 575.376 764.32 572.388 760.633C570.483 758.283 568.925 756.241 568.925 756.096C568.925 755.951 567.673 754.262 566.142 752.342C564.61 750.422 563.031 748.359 562.632 747.758C559.557 743.127 551.873 737.235 545.288 734.46C543.215 733.587 540.292 733.22 537.107 733.296L537.106 733.296ZM535.848 737.959C539.596 737.847 544.105 738.625 544.105 739.383C544.105 739.64 544.438 739.851 544.844 739.851C546.2 739.852 552.29 744.173 554.663 746.818C557.158 749.599 559.393 752.453 565.77 761.003C569.572 766.102 571.114 768.348 573.79 772.691C574.45 773.761 575.181 774.746 575.415 774.88C575.649 775.014 577.242 777.969 578.954 781.448C580.665 784.926 583.26 790.181 584.719 793.124C586.179 796.067 587.49 799.132 587.633 799.935C587.905 801.471 590.567 807.374 591.361 808.206C591.614 808.473 593.477 811.319 595.497 814.53C599.821 821.407 602.031 824.654 602.616 824.99C602.85 825.124 603.247 825.781 603.5 826.45C603.754 827.119 604.634 828.542 605.456 829.612C606.278 830.682 607.842 832.981 608.932 834.72C614.003 842.812 616.546 846.095 620.779 850.014C622.205 851.335 624.286 853.548 625.402 854.932C628.136 858.325 633.704 863.265 639.173 867.154C643.448 870.195 653.74 878.029 661.116 883.858C667.389 888.814 670.984 894.015 673.723 902.102C675.608 907.665 675.854 909.42 676.251 920.103C676.466 925.904 676.842 929.309 677.364 930.193C677.828 930.98 677.924 931.641 677.598 931.807C677.296 931.962 677.206 932.302 677.401 932.563C677.598 932.823 677.5 933.301 677.186 933.624C676.423 934.407 673.988 942.718 670.814 955.374C670.243 957.649 669.453 960.057 669.058 960.726C668.663 961.395 667.769 963.694 667.071 965.834C666.372 967.975 665.03 971.259 664.087 973.132C663.145 975.005 662.219 976.866 662.031 977.267C661.842 977.669 661.18 978.654 660.557 979.456C659.934 980.259 659.404 981.205 659.38 981.558C659.324 982.409 652.341 991.151 648.008 995.797C646.114 997.828 644.565 999.743 644.565 1000.05C644.565 1000.36 644.335 1000.62 644.053 1000.62C643.769 1000.62 642.871 1001.44 642.054 1002.44C640.766 1004.03 635.056 1008.94 629.298 1013.43C627.269 1015.01 625.955 1017.29 626.456 1018.37C627.121 1019.79 629.641 1019.18 632.568 1016.87C634.129 1015.64 636.02 1014.29 636.772 1013.88C638.24 1013.06 649.883 1001.82 649.883 1001.21C649.883 1001.02 650.549 1000.26 651.365 999.536C653.733 997.434 660.257 989.816 661.711 987.455C662.443 986.266 663.206 985.185 663.406 985.051C664.685 984.196 668.566 976.872 671.14 970.456C672.803 966.309 674.43 962.474 674.754 961.935C675.079 961.395 675.43 960.41 675.536 959.745C675.642 959.08 675.875 958.208 676.056 957.807C676.97 955.778 677.614 953.43 677.856 951.239C678.215 948.01 683.899 929.548 685.346 926.914C685.641 926.378 686.707 923.642 687.718 920.832C689.6 915.598 689.711 915.343 691.7 911.589C692.338 910.384 693.186 908.524 693.584 907.453C694.57 904.81 697.713 897.573 698.656 895.777C699.077 894.974 699.985 892.894 700.673 891.155C701.361 889.416 702.566 886.898 703.35 885.56C704.134 884.223 705.445 881.924 706.262 880.452C708.254 876.863 710.362 873.985 713.373 870.742C714.75 869.259 717.152 866.445 718.71 864.488C720.268 862.531 722.105 860.372 722.794 859.691C723.482 859.01 724.854 857.656 725.844 856.682C726.834 855.707 728.06 854.363 728.569 853.694C729.461 852.521 736.569 846.105 742.069 841.509C745.838 838.359 754.982 831.7 757.432 830.321C758.57 829.681 759.854 828.875 760.285 828.53C760.717 828.185 761.648 827.651 762.354 827.344C763.901 826.67 768.876 823.435 769.153 822.923C769.262 822.722 769.635 822.558 769.983 822.558C770.331 822.558 771.44 822.048 772.446 821.426C779.115 817.302 799.729 808.869 808.548 806.659C810.173 806.252 814.296 805.501 817.708 804.99C839.151 801.782 841.989 801.637 850.504 803.308C854.079 804.01 858.866 805.316 861.141 806.209C863.417 807.103 865.943 808.001 866.755 808.205C870.981 809.265 876.903 812.566 881.027 816.159C885.066 819.678 886.249 821.202 889.383 826.936C890.041 828.14 890.803 829.506 891.077 829.97C891.349 830.435 891.574 831.339 891.574 831.98C891.574 832.621 892.214 834.542 892.995 836.251C893.776 837.96 894.607 840.449 894.842 841.783C895.076 843.116 895.557 844.503 895.908 844.865C897.02 846.01 896.767 862.915 895.557 868.29C894.589 872.589 892.478 880.727 891.896 882.398C891.756 882.8 890.887 885.798 889.965 889.062C889.042 892.326 888.133 895.122 887.946 895.277C887.757 895.431 887.042 894.284 886.353 892.729C885.094 889.886 881.194 883.943 878.721 881.1C877.99 880.26 877.392 879.409 877.392 879.209C877.392 878.314 870.188 873.412 866.271 871.642C858.527 868.141 855.972 867.666 844.595 867.609C835.471 867.564 834.142 867.668 830.117 868.741C827.68 869.391 824.754 870.393 823.616 870.966C822.479 871.54 821.083 872.151 820.514 872.323C819.946 872.496 819.48 872.862 819.48 873.138C819.48 873.414 819.09 873.641 818.612 873.641C816.906 873.641 811.108 876.07 809.068 877.64C807.926 878.518 806.545 879.58 805.998 880.001C802.258 882.876 795.252 891.122 795.252 892.649C795.252 893.635 796.959 894.25 798.416 893.79C798.947 893.623 801.259 891.548 803.552 889.18C809.305 883.241 812.304 881.167 820.12 877.719C829.513 873.577 832.548 872.752 840.509 872.178C846.563 871.741 847.979 871.798 853.341 872.698C859.717 873.767 863.286 875.141 868.493 878.529C872.261 880.981 875.06 884.387 880.252 892.836C883.084 897.445 883.98 906.094 882.213 911.769C880.657 916.769 881.559 919.331 884.07 917.046C885.182 916.034 888.708 909.787 889.757 906.967C890.156 905.897 890.639 904.692 890.829 904.291C891.022 903.89 891.199 903.366 891.227 903.127C891.265 902.889 891.692 902.479 892.199 902.216C893.314 901.637 898.604 903.639 901.324 905.67C908.433 910.978 913.3 918.618 915.284 927.586C917.068 935.65 917.33 948.771 915.814 954.158C913.882 961.031 910.464 969.534 906.265 977.916C904.166 982.107 904.131 983.33 906.076 984.381C908.047 985.444 909.783 984.721 911.727 982.029C912.504 980.951 914.799 978.551 916.825 976.693C918.959 974.736 921.529 971.64 922.936 969.331C924.271 967.14 925.807 964.91 926.349 964.375C926.892 963.84 927.84 962.581 928.457 961.577C929.073 960.574 929.769 959.753 930.003 959.753C930.238 959.753 930.96 960.793 931.61 962.064C934.199 967.126 936.268 973.8 936.926 979.213C937.503 983.964 936.926 996.229 935.952 999.647C933.405 1008.65 932.583 1010.94 930.793 1014C929.697 1015.88 928.801 1017.81 928.801 1018.29C928.801 1020.05 929.952 1021.05 931.959 1021.05C933.578 1021.05 934.369 1020.6 936.813 1018.27C938.419 1016.74 940.023 1015.05 940.377 1014.5C940.732 1013.96 942.526 1011.28 944.366 1008.56C946.206 1005.84 947.711 1003.47 947.711 1003.31C947.711 1003.14 948.735 1001.75 949.987 1000.23C958.604 989.74 969.499 972.928 972.432 965.591C976.075 956.475 977.42 950.793 977.567 943.896C977.884 928.974 971.919 920.964 956.764 915.965L952.931 914.702L952.799 904.996C952.708 898.448 952.398 894.546 951.845 893.003C951.14 891.033 951.145 890.531 951.883 889.386C953.225 887.297 968.159 875.36 979.697 867.154C985.166 863.265 990.733 858.325 993.468 854.932C994.585 853.548 996.665 851.335 998.091 850.014C1002.32 846.095 1004.87 842.812 1009.94 834.72C1011.03 832.981 1012.59 830.682 1013.41 829.612C1014.24 828.542 1015.12 827.119 1015.37 826.45C1015.62 825.781 1016.02 825.124 1016.25 824.99C1016.84 824.655 1019.05 821.407 1023.37 814.53C1025.39 811.319 1027.25 808.473 1027.51 808.206C1028.3 807.374 1030.96 801.471 1031.24 799.935C1031.38 799.133 1032.69 796.067 1034.15 793.124C1035.61 790.181 1038.2 784.926 1039.92 781.448C1041.63 777.969 1043.22 775.014 1043.45 774.88C1043.69 774.746 1044.42 773.761 1045.08 772.691C1047.76 768.348 1049.3 766.102 1053.1 761.003C1059.48 752.453 1061.71 749.599 1064.21 746.818C1066.58 744.173 1072.67 739.852 1074.03 739.852C1074.43 739.851 1074.76 739.64 1074.76 739.383C1074.76 738.625 1079.27 737.847 1083.02 737.959C1087.84 738.102 1093.53 740.351 1098.35 744.022C1100.89 745.953 1103.92 749.156 1107.54 753.717C1115.94 764.315 1117.9 766.89 1117.9 767.31C1117.9 767.665 1121.9 773.416 1126.37 779.501C1127.36 780.839 1130.07 783.904 1132.4 786.312C1140.31 794.472 1144.28 799.434 1147.99 805.772C1150.72 810.435 1157.26 823.887 1159 828.395C1159.87 830.669 1160.79 832.867 1161.04 833.279C1161.28 833.691 1161.68 835.004 1161.92 836.198C1162.17 837.392 1162.84 839.463 1163.42 840.801C1164 842.139 1164.65 844.109 1164.87 845.179C1165.31 847.405 1170.17 859.798 1171.14 861.176C1171.49 861.679 1171.9 862.639 1172.05 863.309C1172.2 863.98 1172.68 865.1 1173.11 865.8C1173.54 866.5 1174.09 867.787 1174.31 868.659C1174.54 869.532 1175.11 870.874 1175.58 871.644C1176.33 872.895 1177.64 876.471 1179.4 882.154C1179.74 883.224 1180.67 884.929 1181.48 885.942C1182.89 887.703 1185.43 896.022 1186.2 901.371C1186.38 902.575 1186.93 904.943 1187.43 906.633C1187.93 908.324 1188.21 909.813 1188.06 909.942C1187.9 910.071 1188.01 910.987 1188.29 911.977C1189.49 916.095 1188.44 947.734 1186.7 959.7C1186.22 963.015 1185.72 965.873 1185.58 966.051C1185.45 966.229 1184.82 969.099 1184.17 972.429C1182.85 979.289 1182.61 980.43 1181.79 983.834C1178.77 996.385 1178.68 996.998 1178.5 1006.7C1178.32 1015.7 1178.31 1015.79 1176.46 1020.9C1175.76 1022.83 1174.69 1026.66 1174.06 1029.41C1172.29 1037.31 1170.14 1044.1 1168.26 1047.81C1167.92 1048.48 1167.05 1050.34 1166.32 1051.95C1164.61 1055.72 1162.7 1057.81 1159.91 1058.98C1157.45 1060.01 1156.35 1061.68 1156.39 1064.35C1156.45 1069.24 1150.81 1080.3 1146.07 1084.6C1142.16 1088.13 1139.27 1089.26 1133.4 1089.54C1127.51 1089.82 1122.25 1089.04 1118.55 1087.34C1115.6 1085.99 1112.86 1086.06 1112.18 1087.51C1111.38 1089.24 1114.96 1099.58 1118.9 1106.92C1124.37 1117.1 1138.38 1138.02 1140.42 1139.06C1141.4 1139.56 1140.97 1140.36 1139.91 1140.01C1138.29 1139.47 1127.87 1137.32 1125.58 1137.04C1124.45 1136.91 1123.17 1136.7 1122.76 1136.58C1122.34 1136.47 1118.68 1135.82 1114.62 1135.14C1110.57 1134.47 1104.76 1133.26 1101.73 1132.46C1097.12 1131.24 1095.91 1131.09 1094.4 1131.52C1093.4 1131.81 1092.45 1132.33 1092.29 1132.68C1091.98 1133.34 1092.51 1135.51 1093.6 1138.06C1093.95 1138.86 1095.59 1143.13 1097.25 1147.54C1098.92 1151.96 1100.4 1155.9 1100.56 1156.3C1101.13 1157.79 1103.03 1166.37 1103.41 1169.19C1103.63 1170.8 1104.06 1173.65 1104.38 1175.52C1105.4 1181.51 1105.63 1184.52 1105.06 1184.52C1104.76 1184.52 1102.67 1183.35 1100.42 1181.93C1098.17 1180.5 1094.07 1178.43 1091.31 1177.31C1086.33 1175.31 1075.55 1172.36 1073.19 1172.36C1072.51 1172.36 1069.09 1171.82 1065.58 1171.17C1059.89 1170.11 1059.03 1170.06 1057.58 1170.67C1055.39 1171.61 1055.05 1173.31 1056.15 1177.71C1058.13 1185.59 1059.65 1208.58 1058.46 1212.5C1058.03 1213.92 1057.27 1213.99 1054.25 1212.9C1048.68 1210.87 1047.15 1210.36 1045.22 1209.87C1044.08 1209.58 1041.84 1209 1040.23 1208.58C1035.13 1207.25 1028.59 1206.38 1021.5 1206.09C1015.01 1205.82 1014.44 1205.87 1011.36 1207.03C1009.56 1207.71 1007.8 1208.72 1007.43 1209.28C1007.08 1209.83 1006.65 1212.32 1006.49 1214.8C1005.8 1225.7 1005.66 1227.25 1005.13 1230.01C1004.49 1233.34 1001.8 1239.04 1000.2 1240.45C999.012 1241.5 998.584 1241.45 994.103 1239.69C990.961 1238.46 977.627 1235.24 970.037 1233.89C959.737 1232.06 948.41 1233.82 946.533 1237.55C946.106 1238.4 945.438 1239.35 945.048 1239.67C944.659 1239.99 943.479 1242.55 942.425 1245.35C941.372 1248.15 939.564 1251.97 938.407 1253.85C937.25 1255.72 936.012 1257.74 935.656 1258.34C935.301 1258.94 934.81 1259.44 934.566 1259.44C934.324 1259.44 934.123 1259.73 934.123 1260.08C934.123 1260.42 933.223 1261.52 932.123 1262.51C929.895 1264.51 927.652 1264.85 925.372 1263.54C920.278 1260.6 906.476 1260.34 900.144 1263.05C899.169 1263.47 898.036 1263.82 897.625 1263.82C897.215 1263.82 896.417 1264.02 895.853 1264.26C895.288 1264.5 892.832 1265.49 890.395 1266.45C882.426 1269.6 879.707 1271.22 873.266 1276.66C868.299 1280.86 866.153 1281.66 858.949 1282.03C851.357 1282.42 846.351 1281.49 838.984 1278.3C835.896 1276.96 831.825 1275.46 829.936 1274.96C825.61 1273.82 821.812 1272.95 820.665 1272.83C820.177 1272.78 818.714 1272.34 817.415 1271.86C814.081 1270.63 804.759 1270.62 801.459 1271.85C800.159 1272.34 798.696 1272.78 798.209 1272.83C797.061 1272.95 793.264 1273.82 788.937 1274.96C787.049 1275.46 782.977 1276.96 779.89 1278.3C776.713 1279.67 772.467 1281.06 770.108 1281.5V1281.5C765.861 1282.29 763.693 1282.34 756.793 1281.81C752.118 1281.45 750.135 1280.52 745.32 1276.43C739.232 1271.26 736.385 1269.57 728.48 1266.45C726.042 1265.49 723.586 1264.5 723.022 1264.26C722.457 1264.02 721.659 1263.82 721.249 1263.82C720.838 1263.82 719.705 1263.47 718.73 1263.05C712.398 1260.34 698.596 1260.6 693.501 1263.54C691.221 1264.85 688.979 1264.51 686.751 1262.51C685.65 1261.52 684.75 1260.42 684.75 1260.08C684.75 1259.73 684.55 1259.44 684.307 1259.44C684.065 1259.44 683.573 1258.94 683.217 1258.34C682.862 1257.74 681.624 1255.72 680.467 1253.85C679.31 1251.97 677.502 1248.15 676.448 1245.35C675.395 1242.55 674.215 1239.99 673.825 1239.67C673.436 1239.35 672.767 1238.4 672.34 1237.55C670.464 1233.82 659.136 1232.06 648.836 1233.89C641.246 1235.24 627.912 1238.46 624.77 1239.69C620.289 1241.45 619.861 1241.5 618.676 1240.45C617.076 1239.04 614.388 1233.34 613.746 1230.01C613.214 1227.25 613.074 1225.7 612.382 1214.8C612.223 1212.32 611.801 1209.83 611.44 1209.28C611.077 1208.72 609.313 1207.71 607.516 1207.03C604.434 1205.87 603.863 1205.82 597.373 1206.09C590.283 1206.38 583.741 1207.25 578.645 1208.58C577.038 1209 574.793 1209.58 573.655 1209.87C571.721 1210.36 570.198 1210.87 564.624 1212.9C561.605 1213.99 560.848 1213.92 560.416 1212.5C559.22 1208.58 560.745 1185.59 562.723 1177.71C563.828 1173.31 563.481 1171.61 561.294 1170.67C559.842 1170.06 558.988 1170.11 553.289 1171.17C549.78 1171.82 546.359 1172.36 545.685 1172.36C543.326 1172.36 532.539 1175.31 527.562 1177.31C524.8 1178.43 520.699 1180.5 518.449 1181.93C516.2 1183.35 514.113 1184.52 513.811 1184.52C513.244 1184.52 513.472 1181.51 514.493 1175.52C514.811 1173.65 515.249 1170.8 515.463 1169.19C515.841 1166.37 517.74 1157.79 518.314 1156.3C518.469 1155.9 519.956 1151.96 521.62 1147.54C523.283 1143.13 524.925 1138.86 525.269 1138.06C526.358 1135.51 526.89 1133.34 526.583 1132.68C526.42 1132.33 525.47 1131.81 524.473 1131.52C522.959 1131.09 521.75 1131.24 517.144 1132.46C514.11 1133.26 508.308 1134.47 504.251 1135.14C500.194 1135.82 496.533 1136.47 496.116 1136.58C495.698 1136.7 494.426 1136.91 493.289 1137.04C490.998 1137.32 480.585 1139.47 478.959 1140.01C477.899 1140.36 477.477 1139.56 478.458 1139.06C480.498 1138.02 494.502 1117.1 499.973 1106.92C503.915 1099.58 507.495 1089.24 506.689 1087.51C506.013 1086.06 503.274 1085.99 500.328 1087.34C496.628 1089.04 491.364 1089.82 485.47 1089.54C479.602 1089.26 476.711 1088.13 472.808 1084.6C468.06 1080.3 462.42 1069.24 462.484 1064.35C462.522 1061.68 461.429 1060.01 458.964 1058.98C456.171 1057.81 454.268 1055.72 452.555 1051.95C451.826 1050.34 450.952 1048.48 450.612 1047.81C448.732 1044.1 446.589 1037.31 444.809 1029.42C444.187 1026.66 443.111 1022.83 442.416 1020.9C440.567 1015.79 440.552 1015.7 440.378 1006.7C440.189 996.999 440.102 996.386 437.084 983.835C436.266 980.431 436.028 979.289 434.702 972.429C434.059 969.099 433.424 966.229 433.29 966.051C433.157 965.873 432.653 963.015 432.172 959.7C430.436 947.734 429.381 916.095 430.58 911.977C430.867 910.987 430.974 910.071 430.818 909.942C430.659 909.813 430.942 908.325 431.444 906.634C431.946 904.944 432.498 902.576 432.672 901.372C433.442 896.023 435.989 887.703 437.395 885.942C438.204 884.929 439.138 883.225 439.47 882.155C441.237 876.472 442.54 872.895 443.298 871.644C443.764 870.874 444.332 869.532 444.56 868.659C444.787 867.787 445.33 866.501 445.764 865.801C446.199 865.101 446.675 863.98 446.823 863.31C446.97 862.639 447.379 861.679 447.732 861.176C448.7 859.798 453.562 847.406 454.008 845.18C454.223 844.11 454.874 842.14 455.455 840.802C456.036 839.464 456.708 837.392 456.95 836.198C457.192 835.004 457.59 833.691 457.837 833.279C458.083 832.867 459.003 830.67 459.878 828.396C461.613 823.888 468.158 810.436 470.886 805.773C474.593 799.435 478.568 794.473 486.472 786.313C488.804 783.905 491.517 780.84 492.501 779.502C496.975 773.417 500.972 767.665 500.972 767.31C500.972 766.89 502.933 764.316 511.334 753.717C514.949 749.156 517.984 745.953 520.522 744.022C525.346 740.351 531.031 738.102 535.852 737.959L535.848 737.959ZM540.091 788.565C534.456 788.672 529.292 790.144 526.034 792.63C525.153 793.302 524.137 793.854 523.779 793.858C522.618 793.865 515.298 799.851 512.825 802.812C510.122 806.05 509.862 807.195 511.657 807.985C512.99 808.573 515.243 808.055 518.104 806.504C519.905 805.527 523.888 804.344 527.859 803.606C530.249 803.161 531.614 803.203 534.95 803.82C543.328 805.368 548.183 807.26 552.745 810.757C553.76 811.535 555.326 812.647 556.224 813.229C558.691 814.826 562.538 814.691 564.216 812.948C565.311 811.81 565.459 811.186 565.198 808.767C564.582 803.069 560.117 799.599 552.278 798.725C544.937 797.906 536.719 797.713 532.582 798.262C530.306 798.564 527.544 798.927 526.444 799.068C523.802 799.409 524.306 798.816 528.9 796.181C535.046 792.655 541.328 791.806 545.836 793.892C549.161 795.43 551.212 794.451 550.38 791.722C549.811 789.855 547.262 788.841 542.531 788.603C541.711 788.562 540.896 788.55 540.091 788.565V788.565ZM1078.78 788.565C1077.97 788.55 1077.16 788.561 1076.34 788.603C1071.6 788.841 1069.06 789.855 1068.49 791.722C1067.65 794.451 1069.7 795.43 1073.03 793.892C1077.54 791.806 1083.82 792.655 1089.97 796.181C1094.56 798.816 1095.06 799.409 1092.42 799.068C1091.32 798.927 1088.56 798.563 1086.28 798.262C1082.15 797.713 1073.93 797.905 1066.59 798.724C1058.75 799.599 1054.29 803.069 1053.67 808.767C1053.41 811.185 1053.56 811.81 1054.65 812.948C1055.7 814.035 1056.41 814.286 1058.47 814.286C1061.06 814.286 1062.2 813.76 1066.12 810.757C1070.68 807.26 1075.54 805.368 1083.92 803.819C1087.25 803.203 1088.62 803.161 1091.01 803.605C1094.98 804.344 1098.96 805.527 1100.76 806.504C1103.62 808.055 1105.88 808.573 1107.21 807.985C1109 807.194 1108.74 806.05 1106.04 802.812C1103.57 799.851 1096.25 793.866 1095.09 793.857C1094.73 793.854 1093.71 793.302 1092.83 792.629C1089.57 790.144 1084.41 788.672 1078.78 788.565V788.565ZM536.048 821.157C530.641 821.04 525.58 821.183 522.384 821.625C520.842 821.837 517.655 822.263 515.3 822.571C512.944 822.879 510.868 823.33 510.684 823.573C510.503 823.817 509.895 824.016 509.336 824.016C507.807 824.016 500.35 827.085 498.128 828.629C494.318 831.275 497.284 834.26 501.449 831.971C505.211 829.903 512.835 827.554 517.217 827.112C518.517 826.981 520.699 826.67 522.064 826.421C525.563 825.784 543.695 825.819 547.946 826.473C553.601 827.341 558.359 829.472 561.964 832.752C565.057 835.565 566.501 838.082 568.259 843.72C569.392 847.351 570.296 854.666 569.612 854.666C569.378 854.666 568.326 853.917 567.277 853.001C566.228 852.086 564.042 850.843 562.419 850.239C560.797 849.636 559.469 848.956 559.469 848.729C559.469 848.214 557.534 847.604 551.83 846.321C547.813 845.417 546.303 845.344 537.081 845.602C519.854 846.085 508.118 848.673 497.126 854.414C495.501 855.262 493.425 856.336 492.514 856.8C489.598 858.283 489.353 861.001 492.069 861.711C493.176 862 495.129 861.192 500.434 858.249C504.563 855.957 514.571 852.704 520.654 851.676C529.327 850.21 545.435 849.855 551.131 851.004C553.415 851.465 555.593 852.149 555.971 852.525C556.35 852.9 556.911 853.207 557.219 853.207C558.045 853.207 563.153 856.175 564.303 857.323C566.46 859.478 570.106 865.449 570.106 866.829C570.106 868.576 569.344 868.677 567.517 867.174C564.381 864.592 558.657 862.177 552.673 860.91C549.446 860.227 540.73 860.736 534.655 861.964C528.773 863.153 518.75 866.365 515.605 868.068C514.393 868.725 513.245 869.262 513.053 869.262C512.455 869.262 504.911 873.726 502.887 875.277C500.034 877.464 500.47 879.478 503.796 879.478C504.324 879.478 507.426 878.012 510.691 876.219C519.164 871.566 520.582 870.861 522.241 870.472C523.053 870.282 524.516 869.852 525.49 869.516C530.596 867.761 532.397 867.259 536.817 866.356C543.367 865.018 550.194 865.048 555.439 866.439C557.656 867.027 559.469 867.66 559.469 867.846C559.469 868.032 560.775 869.004 562.37 870.006C566.435 872.558 567.408 874.545 566.878 879.205C566.416 883.258 565.949 883.599 563.138 881.937C562.257 881.416 559.809 880.517 557.697 879.938C553.407 878.764 549.274 878.844 541.941 880.244C533.832 881.792 526.523 886.324 526.898 889.573C527.015 890.594 530.57 890.261 532.526 889.046C537.708 885.828 544.929 883.857 551.532 883.857C554.802 883.857 559.86 885.407 562.043 887.078C563.644 888.304 563.715 888.533 563.442 891.586C563.283 893.355 562.707 896.438 562.163 898.435C560.092 906.033 560.054 924.104 562.091 932.994C563.471 939.023 563.623 940.251 563.856 947.346C563.981 951.092 564.215 955.033 564.382 956.103C564.548 957.174 564.857 960.676 565.067 963.887C565.556 971.403 565.803 972.374 567.355 972.89C570.798 974.033 572.087 973.206 574.945 968.023C578.168 962.176 579.571 957.883 582.18 945.887C583.905 937.953 584.869 918.622 583.794 913.534C583.427 911.794 582.983 904.679 582.807 897.722C582.63 890.645 581.992 881.216 581.36 876.316C580.739 871.499 579.921 864.275 579.545 860.261C579.105 855.569 578.468 852.095 577.758 850.531C577.151 849.193 576.092 846.144 575.407 843.755C573.626 837.55 571.256 834.059 565.263 828.814C562.023 825.978 555.359 822.739 551.788 822.264C547.207 821.655 541.455 821.275 536.048 821.157L536.048 821.157ZM1082.82 821.157C1077.41 821.275 1071.66 821.655 1067.08 822.264C1063.51 822.739 1056.84 825.979 1053.6 828.815C1047.61 834.06 1045.24 837.55 1043.46 843.755C1042.77 846.144 1041.72 849.193 1041.11 850.531C1040.4 852.095 1039.76 855.569 1039.32 860.261C1038.94 864.275 1038.13 871.499 1037.51 876.316C1036.88 881.216 1036.24 890.645 1036.06 897.722C1035.89 904.679 1035.44 911.794 1035.07 913.534C1034 918.622 1034.96 937.953 1036.69 945.886C1039.73 959.876 1042.54 967.317 1046.57 972.089C1047.6 973.296 1048.02 973.443 1049.83 973.201C1050.97 973.049 1052.17 972.704 1052.5 972.436C1052.82 972.169 1053.31 969.369 1053.57 966.215C1053.83 963.062 1054.21 959.059 1054.4 957.319C1054.6 955.58 1054.87 951.092 1055 947.346C1055.25 940.245 1055.4 939.01 1056.78 932.994C1058.81 924.104 1058.77 906.033 1056.7 898.435C1056.16 896.438 1055.58 893.356 1055.43 891.587C1055.15 888.534 1055.23 888.303 1056.82 887.078C1059.01 885.407 1064.06 883.857 1067.33 883.857C1073.94 883.857 1081.16 885.828 1086.34 889.046C1088.3 890.26 1091.85 890.593 1091.97 889.573C1092.49 885.048 1081.61 880.132 1068.97 879.184C1065.8 878.946 1064.25 879.096 1061.17 879.938C1059.06 880.516 1056.61 881.416 1055.73 881.936C1052.92 883.599 1052.45 883.258 1051.99 879.204C1051.46 874.544 1052.43 872.558 1056.5 870.005C1058.09 869.004 1059.4 868.032 1059.4 867.846C1059.4 867.659 1061.21 867.026 1063.43 866.438C1068.67 865.048 1075.5 865.018 1082.05 866.356C1086.47 867.259 1088.27 867.761 1093.38 869.517C1094.35 869.852 1095.81 870.282 1096.63 870.472C1098.29 870.86 1099.7 871.566 1108.18 876.219C1111.44 878.011 1114.54 879.478 1115.07 879.478C1118.4 879.478 1118.83 877.464 1115.98 875.277C1113.96 873.726 1106.41 869.261 1105.81 869.261C1105.62 869.261 1104.47 868.724 1103.26 868.068C1100.12 866.364 1090.09 863.152 1084.21 861.964C1078.14 860.736 1069.42 860.227 1066.19 860.91C1060.21 862.177 1054.49 864.592 1051.35 867.174C1049.52 868.677 1048.76 868.576 1048.76 866.829C1048.76 865.449 1052.41 859.477 1054.56 857.323C1055.71 856.174 1060.82 853.206 1061.65 853.206C1061.95 853.206 1062.52 852.9 1062.89 852.524C1063.27 852.149 1065.45 851.465 1067.74 851.004C1073.43 849.855 1089.54 850.21 1098.21 851.676C1104.3 852.704 1114.3 855.957 1118.43 858.248C1123.74 861.191 1125.69 862 1126.8 861.711C1129.51 861.001 1129.27 858.282 1126.35 856.799C1125.44 856.336 1123.37 855.262 1121.74 854.413C1110.75 848.673 1099.01 846.085 1081.79 845.602C1072.56 845.343 1071.05 845.417 1067.04 846.32C1061.33 847.603 1059.4 848.213 1059.4 848.729C1059.4 848.955 1058.07 849.635 1056.45 850.239C1054.83 850.843 1052.64 852.086 1051.59 853.001C1050.54 853.917 1049.49 854.666 1049.25 854.666C1048.57 854.666 1049.47 847.351 1050.61 843.72C1052.37 838.081 1053.81 835.564 1056.9 832.751C1060.51 829.471 1065.27 827.341 1070.92 826.472C1075.17 825.819 1093.3 825.783 1096.8 826.421C1098.17 826.67 1100.35 826.981 1101.65 827.112C1106.03 827.554 1113.66 829.903 1117.42 831.971C1121.58 834.26 1124.55 831.275 1120.74 828.628C1118.52 827.085 1111.06 824.016 1109.53 824.016C1108.97 824.016 1108.37 823.816 1108.18 823.573C1108 823.33 1105.92 822.879 1103.57 822.571C1101.21 822.263 1098.02 821.836 1096.48 821.624C1093.29 821.184 1088.23 821.039 1082.82 821.157L1082.82 821.157ZM914.859 867.779C920.925 867.813 926.093 870.41 933.281 876.322C941.414 883.012 943.71 886.314 946.302 895.046C947.741 899.898 947.852 915.232 946.457 916.726C946.192 917.011 945.856 917.996 945.711 918.916C945.405 920.86 945.039 921.814 943.579 924.48C942.992 925.55 942.175 927.192 941.762 928.129C941.349 929.065 940.743 930.118 940.417 930.468C940.092 930.819 939.76 931.594 939.683 932.192C939.607 932.79 938.607 934.593 937.463 936.201C936.318 937.808 935.194 939.77 934.964 940.56C934.733 941.349 934.341 942.213 934.089 942.481C933.208 943.419 926.436 954.636 926.436 955.159C926.436 955.449 925.645 956.547 924.679 957.598C923.713 958.649 922.915 959.646 922.907 959.815C922.907 959.983 921.931 961.406 920.758 962.977L918.625 965.833L919.019 963.195C919.234 961.743 919.645 960.199 919.929 959.762C923.192 954.743 923.203 930.581 919.929 923.526C919.6 922.812 919.328 921.798 919.328 921.272C919.328 920.747 918.438 918.736 917.35 916.803C916.262 914.871 914.943 912.524 914.418 911.588C913.291 909.576 906.542 902.904 904.864 902.144C904.222 901.852 903.424 901.357 903.092 901.044C901.977 899.994 898.063 898.464 895.691 898.152C893.668 897.886 893.384 897.699 893.649 896.809C893.819 896.241 894.191 894.682 894.476 893.344C894.76 892.006 895.128 890.473 895.293 889.938C895.854 888.115 899.755 874.377 900.235 872.53C900.701 870.738 900.846 870.652 905.737 869.252C909.14 868.278 912.084 867.764 914.841 867.779H914.859ZM509.779 885.316C507.835 885.316 507.413 887.005 507.435 894.691C507.473 901.787 508.137 907.873 510.037 917.912C510.517 920.454 511.329 924.869 511.84 927.724C513.333 936.056 519.365 955.52 522.37 961.698C524.788 966.67 524.967 967.048 525.835 968.996C527.597 972.951 531.936 975.75 539.428 977.766C542.344 978.55 545.223 979.41 545.827 979.676C547.356 980.35 549.423 983.384 549.423 984.956C549.423 986.492 550.903 992.575 552.074 995.856C553.3 999.295 554.742 1001.67 556.603 1003.31C558.054 1004.59 558.207 1004.99 557.747 1006.31C557.159 1008 557.512 1024.01 558.268 1029.94C558.532 1032.02 559.077 1034.04 559.478 1034.44C559.878 1034.84 560.961 1035.16 561.885 1035.16C564.188 1035.16 565.085 1033.73 564.187 1031.49C563.52 1029.82 563.363 1026.94 563.523 1019.23C563.602 1015.42 563.705 1015.12 565.565 1013.39C566.642 1012.39 568.303 1010.49 569.258 1009.19C570.212 1007.88 571.454 1006.24 572.018 1005.54C575.397 1001.35 576.847 994.76 575.243 990.888C574.325 988.672 570.087 986.802 567.867 987.635C566.18 988.268 563.014 993.189 563.014 995.179C563.014 996.6 561.601 999.405 560.638 999.895C559.42 1000.51 557.489 995.709 555.089 986.084C552.991 977.669 551.341 976.006 543.347 974.249C535.472 972.519 532.086 970.152 529.48 964.554C526.647 958.467 523.423 950.579 523.423 949.734C523.423 949.261 523.169 948.202 522.863 947.38C522.557 946.558 521.862 944.573 521.322 942.967C520.781 941.362 519.983 939.143 519.548 938.038C519.113 936.932 518.195 932.772 517.509 928.794C516.822 924.816 515.629 918.496 514.859 914.75C513.327 907.309 512.691 901.27 512.517 892.524C512.4 886.604 511.909 885.316 509.779 885.316V885.316ZM1109.09 885.316C1106.96 885.316 1106.47 886.604 1106.35 892.524C1106.18 901.27 1105.54 907.309 1104.01 914.75C1103.24 918.496 1102.04 924.816 1101.36 928.794C1100.67 932.772 1099.75 936.932 1099.32 938.038C1098.88 939.143 1098.09 941.362 1097.54 942.967C1097 944.573 1096.31 946.558 1096 947.38C1095.7 948.202 1095.44 949.261 1095.44 949.734C1095.44 950.579 1092.22 958.467 1089.39 964.554C1086.78 970.152 1083.39 972.519 1075.52 974.249C1067.53 976.006 1065.88 977.669 1063.78 986.084C1061.38 995.709 1059.45 1000.51 1058.23 999.895C1057.27 999.405 1055.85 996.6 1055.85 995.179C1055.85 993.189 1052.69 988.268 1051 987.635C1048.78 986.802 1044.54 988.672 1043.62 990.888C1042.02 994.76 1043.47 1001.35 1046.85 1005.54C1047.41 1006.24 1048.65 1007.88 1049.61 1009.19C1050.56 1010.49 1052.22 1012.39 1053.3 1013.39C1055.16 1015.12 1055.27 1015.42 1055.34 1019.23C1055.5 1026.94 1055.34 1029.82 1054.68 1031.49C1054.19 1032.71 1054.18 1033.44 1054.64 1034.16C1055.41 1035.35 1058.29 1035.52 1059.38 1034.44C1059.78 1034.04 1060.32 1032.02 1060.58 1029.94C1061.34 1024.01 1061.69 1008 1061.11 1006.31C1060.65 1004.99 1060.8 1004.59 1062.25 1003.31C1064.11 1001.67 1065.55 999.295 1066.78 995.856C1067.95 992.575 1069.43 986.492 1069.43 984.956C1069.43 983.384 1071.5 980.35 1073.03 979.676C1073.63 979.41 1076.51 978.55 1079.42 977.766C1086.92 975.75 1091.26 972.951 1093.02 968.996C1093.88 967.049 1094.06 966.67 1096.48 961.698C1099.49 955.52 1105.52 936.056 1107.01 927.724C1107.52 924.87 1108.33 920.454 1108.82 917.912C1110.71 907.873 1111.4 901.787 1111.42 894.691C1111.46 887.005 1111.02 885.316 1109.07 885.316L1109.09 885.316ZM502.26 898.8C501.263 898.906 500.316 899.768 499.83 901.216C499.448 902.358 499.287 907.791 499.412 915.473C499.594 926.606 499.749 928.262 500.931 931.534C501.656 933.541 502.606 936.606 503.042 938.346C503.478 940.085 504.52 943.911 505.356 946.85C506.193 949.788 506.876 952.785 506.876 953.508C506.876 954.231 507.167 955.439 507.521 956.192C508.149 957.525 508.992 977.753 508.42 977.753C508.261 977.753 506.418 976.786 504.322 975.604C502.226 974.423 499.695 973.109 498.699 972.685C496.353 971.686 492.43 971.7 490.342 972.715C487.423 974.135 486.737 976.171 486.444 984.28C486.297 988.316 486.031 992.384 485.848 993.321C485.508 995.06 484.841 1007.38 484.088 1025.75L483.667 1036.04L485.199 1037.31C488.009 1039.62 489.412 1039.05 493.429 1033.94C496.513 1030.03 496.695 1029.09 497.188 1014.48C497.502 1005.15 498.428 1000.63 500.641 997.593C502.847 994.569 503.421 994.044 505.476 993.17C512.55 990.161 513.899 987.12 514.266 973.374C514.55 962.784 513.022 951.518 510.144 942.963C509.604 941.36 508.808 938.482 508.375 936.569C507.941 934.655 507.308 932.356 506.967 931.46C505.583 927.812 505.059 922.453 505.03 911.71C504.992 901.887 504.871 900.277 504.017 899.464C503.473 898.945 502.858 898.736 502.26 898.8V898.8ZM1116.61 898.8C1116.01 898.736 1115.39 898.945 1114.85 899.464C1114 900.277 1113.86 901.887 1113.84 911.71C1113.8 922.453 1113.28 927.812 1111.9 931.46C1111.56 932.356 1110.92 934.655 1110.49 936.569C1110.06 938.482 1109.26 941.36 1108.72 942.964C1105.84 951.518 1104.32 962.785 1104.6 973.374C1104.97 987.121 1106.32 990.161 1113.39 993.17C1115.44 994.044 1116.02 994.569 1118.22 997.593C1120.44 1000.63 1121.36 1005.15 1121.68 1014.48C1122.17 1029.09 1122.35 1030.03 1125.44 1033.94C1126.91 1035.82 1128.53 1037.62 1129.03 1037.96C1130.45 1038.9 1131.99 1038.68 1133.67 1037.31L1135.2 1036.04L1134.78 1025.75C1134.03 1007.38 1133.36 995.061 1133.02 993.321C1132.84 992.384 1132.57 988.316 1132.42 984.281C1132.13 976.171 1131.44 974.135 1128.52 972.716C1126.44 971.7 1122.51 971.686 1120.17 972.685C1119.17 973.109 1116.64 974.423 1114.54 975.604C1112.45 976.786 1110.6 977.753 1110.45 977.753C1109.87 977.753 1110.72 957.525 1111.34 956.193C1111.7 955.439 1111.99 954.231 1111.99 953.508C1111.99 952.785 1112.67 949.789 1113.51 946.85C1114.35 943.912 1115.39 940.085 1115.82 938.346C1116.26 936.606 1117.21 933.541 1117.93 931.535C1119.12 928.262 1119.27 926.606 1119.45 915.473C1119.58 907.791 1119.42 902.358 1119.04 901.216C1118.55 899.768 1117.6 898.906 1116.61 898.8V898.8ZM953.257 919.512C955.341 919.672 958.814 921.081 962.521 923.452C969.407 927.854 972.032 933.24 971.994 942.885C971.994 947.063 971.614 950.094 970.755 953.184C970.085 955.592 969.318 958.438 969.049 959.509C968.781 960.579 968.156 962.33 967.661 963.401C967.166 964.471 966.419 966.113 966 967.049C964.568 970.251 953.999 986.774 951.109 990.328C950.215 991.427 949.484 992.419 949.484 992.53C949.484 992.642 947.923 994.781 946.017 997.284C944.111 999.787 942.366 1002.33 942.137 1002.93C941.91 1003.53 941.325 1004.02 940.84 1004.02C940.354 1004.02 940.137 1003.79 940.355 1003.5C941.311 1002.22 942.37 992.92 942.381 985.701C942.381 978.814 941.906 974.888 940.404 969.725C939.735 967.424 937.099 961.695 935.187 958.389L932.852 954.351L934.055 952.551C935.241 950.776 937.409 947.174 943.057 937.595C944.642 934.908 945.938 932.379 945.938 931.975C945.938 931.572 946.18 931.034 946.476 930.78C947.128 930.221 951.257 921.46 951.257 920.636C951.257 919.77 952.007 919.416 953.257 919.512V919.512ZM801.015 981.21C795.996 981.315 789.757 982.138 786.571 983.374C784.885 984.028 783.365 984.564 783.193 984.564C782.713 984.564 778.179 987.019 774.563 989.236C768.639 992.869 764.551 996.295 758.808 1002.44C750.84 1010.97 741.987 1018.17 734.505 1022.22C731.159 1024.03 727.568 1026.28 726.527 1027.22C725.485 1028.17 723.559 1029.85 722.246 1030.96C716.28 1035.99 713.66 1039.83 715.278 1041.16C716.342 1042.04 717.993 1041.18 721.446 1037.96C727.915 1031.93 732.91 1028.03 735.921 1026.66C744.076 1022.94 753.677 1015.12 766.704 1001.59C768.379 999.852 770.488 997.991 771.39 997.456C772.293 996.921 774.51 995.48 776.315 994.253C784.661 988.584 791.444 986.116 799.278 985.896C802.774 985.798 803.693 985.95 805.218 986.875C806.394 987.589 807.86 987.969 809.433 987.969C811.006 987.969 812.472 987.589 813.648 986.875C815.172 985.949 816.092 985.798 819.588 985.896C827.422 986.116 834.205 988.584 842.551 994.253C844.357 995.48 846.573 996.921 847.476 997.456C848.378 997.991 850.488 999.852 852.163 1001.59C865.19 1015.12 874.79 1022.94 882.945 1026.66C885.96 1028.03 890.95 1031.93 897.444 1037.98C901.697 1041.95 903.542 1042.46 903.863 1039.75C904.052 1038.17 901.517 1035.09 896.62 1030.96C895.306 1029.85 893.379 1028.17 892.338 1027.22C891.296 1026.28 887.707 1024.03 884.36 1022.22C876.879 1018.17 868.027 1010.97 860.058 1002.44C854.315 996.295 850.228 992.869 844.304 989.236C840.688 987.019 836.152 984.564 835.672 984.564C835.502 984.564 833.981 984.028 832.295 983.374C827.197 981.396 814.284 980.477 811.058 981.862C809.647 982.469 809.22 982.469 807.808 981.862C806.599 981.343 804.026 981.147 801.015 981.21V981.21ZM779.011 1026.06C777.931 1026.02 776.56 1026.14 774.759 1026.4C772.542 1026.71 770.329 1027.02 769.841 1027.09C766.917 1027.49 764.568 1028.08 762.75 1028.86C761.612 1029.35 759.709 1030.1 758.521 1030.54C757.333 1030.98 755.205 1032.32 753.793 1033.52C752.381 1034.72 750.232 1036.04 749.018 1036.46C747.121 1037.1 745.76 1038.14 742.607 1041.37C742.278 1041.71 741.125 1043.35 740.046 1045.03C738.185 1047.92 737.723 1049.04 737.002 1052.43C736.209 1056.17 735.194 1058.03 731.601 1062.37C727.245 1067.62 725.004 1071.36 723.268 1076.3C721.34 1081.78 719.612 1088.42 719.612 1090.35C719.612 1092.93 722.179 1096.34 724.541 1096.9C725.568 1097.14 726.761 1097.25 727.194 1097.15C727.627 1097.04 728.335 1096.95 728.768 1096.95C730.134 1096.95 733.802 1093.61 735.061 1091.22C738.049 1085.54 739.888 1080.69 741.188 1075.05C742.81 1068.03 744.569 1063.84 747.625 1059.73C749.518 1057.18 751.473 1053.01 751.834 1050.73C751.898 1050.33 752.098 1049.67 752.281 1049.27C752.462 1048.87 752.807 1047.66 753.047 1046.59C753.631 1043.99 753.62 1044.03 754.782 1041.24C756.257 1037.71 757.456 1036.56 761.966 1034.37C766.7 1032.06 771.88 1031.01 778.005 1031.11C782.016 1031.17 782.371 1031.1 782.963 1030.03C783.462 1029.12 783.388 1028.61 782.622 1027.65C781.802 1026.62 780.812 1026.12 779.012 1026.06L779.011 1026.06ZM839.855 1026.06C838.055 1026.12 837.064 1026.62 836.244 1027.65C835.477 1028.61 835.404 1029.12 835.905 1030.03C836.496 1031.09 836.851 1031.17 840.862 1031.11C846.987 1031.01 852.167 1032.06 856.9 1034.37C861.41 1036.56 862.61 1037.71 864.084 1041.24C865.246 1044.03 865.236 1043.99 865.819 1046.59C866.061 1047.66 866.404 1048.87 866.586 1049.27C866.768 1049.67 866.969 1050.33 867.033 1050.73C867.392 1053.01 869.347 1057.18 871.24 1059.73C874.296 1063.84 876.056 1068.03 877.678 1075.05C880.462 1087.12 885.861 1096.36 890.548 1097.08C893.708 1097.57 896.043 1096.66 897.737 1094.28C899.589 1091.68 899.639 1089.93 898.021 1084.11C895.016 1073.3 893.066 1069.36 887.264 1062.37C883.671 1058.03 882.657 1056.17 881.864 1052.43C881.144 1049.04 880.681 1047.92 878.82 1045.03C877.741 1043.35 876.588 1041.71 876.258 1041.37C873.105 1038.14 871.744 1037.1 869.848 1036.46C868.634 1036.04 866.485 1034.72 865.073 1033.52C863.661 1032.32 861.534 1030.98 860.346 1030.54C859.157 1030.1 857.254 1029.35 856.117 1028.86C854.299 1028.08 851.95 1027.49 849.026 1027.09C848.538 1027.02 846.325 1026.71 844.107 1026.4C842.306 1026.14 840.935 1026.02 839.855 1026.06V1026.06ZM805.152 1037.11C803.536 1037.11 801.751 1038.46 801.751 1039.68C801.751 1041.68 804.182 1047.31 805.333 1047.97C806.793 1048.81 812.527 1048.72 813.822 1047.84C814.749 1047.21 817.115 1041.41 817.115 1039.77C817.115 1038.5 815.385 1037.11 813.817 1037.11C812.304 1037.11 810.024 1039.19 810.024 1040.58C810.024 1041.08 809.759 1041.49 809.433 1041.49C809.108 1041.49 808.842 1041.08 808.842 1040.58C808.842 1039.24 806.578 1037.11 805.152 1037.11V1037.11ZM782.598 1049.76C780.629 1049.76 779.97 1050.64 778.962 1054.61C777.154 1061.75 779.72 1067.99 785.715 1071.04C786.897 1071.64 788.523 1072.13 789.328 1072.13C791.849 1072.14 798.717 1074.57 800.004 1075.92C801.025 1076.99 801.154 1077.6 800.824 1079.77C800.556 1081.54 800.662 1082.59 801.164 1083.09C802.181 1084.09 804.547 1083.99 805.249 1082.91C805.571 1082.42 806.008 1080.07 806.223 1077.68C806.597 1073.54 806.552 1073.29 805.173 1072.08C803.49 1070.6 798.571 1068.97 794.365 1068.52C789.939 1068.04 786.541 1066.51 785.256 1064.42C783.59 1061.72 783.236 1058.25 784.258 1054.66C785.267 1051.12 784.806 1049.76 782.599 1049.76H782.598ZM836.269 1049.76C834.062 1049.76 833.6 1051.12 834.609 1054.66C835.631 1058.25 835.277 1061.72 833.611 1064.42C832.326 1066.51 828.928 1068.04 824.502 1068.52C820.296 1068.97 815.378 1070.6 813.694 1072.08C812.317 1073.29 812.27 1073.54 812.644 1077.68C812.86 1080.07 813.297 1082.42 813.619 1082.91C813.94 1083.41 814.825 1083.81 815.586 1083.81C817.807 1083.81 818.486 1082.7 818.042 1079.77C817.713 1077.6 817.842 1076.99 818.862 1075.92C820.149 1074.57 827.016 1072.14 829.538 1072.13C830.343 1072.13 831.969 1071.64 833.151 1071.04C839.147 1067.99 841.713 1061.75 839.905 1054.61C838.897 1050.64 838.238 1049.76 836.269 1049.76V1049.76ZM640.265 1051.22C638.114 1051.21 637.922 1051.36 634.776 1055.38C630.278 1061.12 626.966 1066.68 626.197 1069.77C625.842 1071.21 625.316 1073.27 625.03 1074.36C624.298 1077.14 624.779 1087.63 625.719 1089.41C628.068 1093.84 629.996 1094.61 638.359 1094.49C647.236 1094.36 649.119 1094.43 652.541 1095.05C655.753 1095.62 660.461 1096.91 661.405 1097.46C661.73 1097.66 662.527 1097.92 663.177 1098.05C663.828 1098.19 664.508 1098.32 664.69 1098.35C666.397 1098.64 668.397 1095.1 670.967 1087.22C672.199 1083.44 672.488 1081.39 672.553 1076.03C672.629 1069.68 672.591 1069.37 670.932 1066.78C669.359 1064.31 665.116 1060.46 663.959 1060.46C663.683 1060.46 661.269 1059.32 658.591 1057.93C651.932 1054.48 643.034 1051.22 640.265 1051.22V1051.22ZM978.6 1051.22C975.831 1051.22 966.935 1054.48 960.275 1057.93C957.598 1059.32 955.181 1060.46 954.907 1060.46C953.75 1060.46 949.507 1064.31 947.934 1066.78C946.29 1069.37 946.237 1069.68 946.314 1076.03C946.378 1081.39 946.668 1083.44 947.899 1087.22C949.901 1093.36 951.628 1097.06 952.828 1097.79C953.765 1098.36 956.173 1098.18 957.461 1097.45C958.44 1096.89 963.179 1095.61 966.325 1095.05C969.748 1094.43 971.63 1094.36 980.507 1094.49C988.87 1094.61 990.798 1093.84 993.147 1089.41C994.087 1087.63 994.569 1077.14 993.837 1074.36C993.55 1073.27 993.025 1071.21 992.669 1069.77C991.9 1066.68 988.587 1061.12 984.089 1055.38C980.943 1051.36 980.751 1051.22 978.6 1051.22V1051.22ZM762.219 1062.89C759.897 1062.89 757.156 1065.62 756.208 1068.87C755.179 1072.4 755.827 1077.88 757.644 1081.01C759.368 1083.98 763.653 1087.89 767.513 1090.03C771.813 1092.4 779.973 1095.65 782.545 1096.01C786.175 1096.52 789.958 1096.49 792.887 1095.93C799.273 1094.73 802.93 1092.02 800.795 1090.07C799.53 1088.92 798.701 1088.93 796.34 1090.11C795.299 1090.63 794.249 1090.96 794.005 1090.83C793.759 1090.71 793.392 1090.83 793.188 1091.1C792.614 1091.87 786.061 1091.69 782.342 1090.8C777.876 1089.74 771.655 1087.13 769.885 1085.56C769.097 1084.87 768.221 1084.3 767.937 1084.3C767.188 1084.3 764.738 1081.95 762.95 1079.52C761.802 1077.96 761.326 1076.52 761.103 1073.95C760.823 1070.72 760.933 1070.28 762.761 1067.5C764.997 1064.09 764.856 1062.89 762.219 1062.89V1062.89ZM856.647 1062.89C854.011 1062.89 853.87 1064.09 856.105 1067.5C857.933 1070.28 858.044 1070.72 857.763 1073.95C857.54 1076.52 857.064 1077.96 855.916 1079.52C854.129 1081.95 851.678 1084.3 850.929 1084.3C850.646 1084.3 849.769 1084.87 848.981 1085.56C847.212 1087.13 840.989 1089.74 836.525 1090.8C832.805 1091.69 826.252 1091.87 825.678 1091.1C825.474 1090.83 825.106 1090.71 824.862 1090.83C824.616 1090.96 823.566 1090.63 822.525 1090.11C820.165 1088.93 819.336 1088.92 818.071 1090.07C815.994 1091.96 819.511 1094.66 825.721 1095.95C827.001 1096.21 830.265 1096.32 832.977 1096.19C837.353 1095.99 838.505 1095.71 843.257 1093.75C850.28 1090.85 853.438 1089.07 856.892 1086.05C860.79 1082.65 862.631 1079.3 863.038 1074.87C863.45 1070.39 862.496 1066.99 860.172 1064.67C858.857 1063.35 857.94 1062.89 856.647 1062.89V1062.89ZM638.887 1070.29C640.87 1070.41 641.385 1070.65 641.83 1071.7C642.627 1073.58 641.831 1075.42 639.857 1076.26C637.585 1077.23 637.12 1077.2 635.632 1075.97C634.663 1075.17 634.46 1074.57 634.718 1073.25C635.211 1070.75 636.103 1070.12 638.887 1070.29V1070.29ZM979.979 1070.29C982.763 1070.12 983.655 1070.75 984.148 1073.25C984.405 1074.57 984.201 1075.17 983.234 1075.97C981.773 1077.17 981.081 1077.22 978.89 1076.24C977.025 1075.41 976.259 1073.53 977.036 1071.7C977.481 1070.65 977.996 1070.41 979.979 1070.29V1070.29ZM661.685 1073.12C662.002 1073.11 662.218 1073.34 662.633 1073.81C663.658 1074.96 663.727 1077.08 662.765 1077.88C661.794 1078.67 659.634 1078.61 658.773 1077.76C657.689 1076.68 658.268 1075.02 660.122 1073.89C660.947 1073.38 661.367 1073.13 661.685 1073.12L661.685 1073.12ZM957.182 1073.12C957.5 1073.13 957.92 1073.38 958.745 1073.89C960.598 1075.02 961.178 1076.68 960.094 1077.76C959.233 1078.61 957.072 1078.68 956.102 1077.88C955.139 1077.08 955.207 1074.96 956.234 1073.81C956.648 1073.34 956.864 1073.11 957.182 1073.12V1073.12ZM802.761 1098.63C802.17 1098.53 801.673 1098.75 800.834 1099.4C799.45 1100.47 799.439 1100.56 799.682 1108.81C799.819 1113.39 799.94 1117.61 799.955 1118.2C799.955 1118.78 800.398 1119.6 800.909 1120.02C802.058 1120.97 802.966 1120.99 804.447 1120.1C805.705 1119.34 805.736 1118.95 805.367 1108.38C805.103 1100.82 804.825 1099.47 803.401 1098.84C803.167 1098.73 802.96 1098.66 802.763 1098.63H802.761ZM816.105 1098.63C815.909 1098.66 815.701 1098.73 815.467 1098.84C814.042 1099.47 813.764 1100.82 813.5 1108.38C813.134 1118.95 813.164 1119.34 814.421 1120.1C815.052 1120.47 815.897 1120.79 816.299 1120.79C817.448 1120.79 818.886 1119.36 818.913 1118.2C818.913 1117.61 819.049 1113.39 819.185 1108.81C819.427 1100.56 819.42 1100.47 818.035 1099.4C817.195 1098.75 816.698 1098.53 816.107 1098.63H816.105ZM797.023 1125C785.951 1124.94 777.348 1125.46 775.24 1126.32C774.383 1126.67 772.085 1127.32 770.133 1127.76C768.181 1128.19 765.532 1128.99 764.247 1129.53C762.961 1130.07 761.605 1130.52 761.234 1130.52C760.494 1130.52 748.795 1134.48 746.291 1135.59C745.431 1135.96 742.2 1137.26 739.112 1138.46C736.024 1139.66 731.77 1141.54 729.658 1142.64C727.545 1143.73 725.417 1144.77 724.93 1144.94C721.687 1146.06 715.7 1148.58 711.929 1150.41C700.491 1155.97 689.888 1159.97 681.792 1161.78C672.283 1163.9 668.678 1164.53 663.21 1165.06C655.442 1165.81 655.92 1167.92 665.516 1175.27C668.133 1177.28 671.338 1179.99 672.636 1181.29C673.935 1182.59 676.725 1184.62 678.837 1185.79C680.95 1186.97 683.742 1188.57 685.042 1189.36C687.49 1190.84 690.4 1191.55 695.978 1192.05C698.741 1192.3 699.375 1192.55 700.183 1193.71C700.98 1194.85 701.435 1195.04 702.986 1194.85C704.776 1194.63 705.231 1195.09 704.91 1196.8C704.872 1196.99 705.22 1197.98 705.684 1198.99C706.147 1199.99 706.658 1202.13 706.819 1203.74C707.11 1206.64 709.425 1216.64 711.096 1222.22C712.367 1226.47 713.023 1227.33 714.971 1227.33C717.244 1227.33 718.221 1225.87 718.707 1221.74C719.45 1215.42 719.613 1214.45 720.837 1209.09C721.508 1206.14 722.177 1203.24 722.323 1202.64C722.512 1201.86 723.007 1201.55 724.055 1201.55C724.861 1201.55 725.521 1201.71 725.521 1201.91C725.521 1202.38 728.294 1203.4 731.896 1204.25C736.846 1205.43 764.726 1213.21 767.772 1214.27C769.397 1214.83 771.259 1215.46 771.909 1215.66C781.148 1218.51 782.056 1218.91 788.934 1223.07C791.474 1224.61 793.674 1225.87 793.824 1225.87C793.975 1225.87 795.767 1226.74 797.808 1227.8C802.422 1230.2 807.484 1231.25 811.732 1230.7C816.173 1230.12 817.008 1229.86 821.089 1227.76C823.113 1226.72 824.892 1225.87 825.042 1225.87C825.193 1225.87 827.393 1224.61 829.933 1223.07C836.789 1218.92 837.948 1218.42 846.957 1215.66C847.607 1215.47 849.2 1214.92 850.497 1214.46C851.794 1213.99 859.506 1211.78 867.635 1209.55C875.763 1207.31 883.561 1205.14 884.964 1204.72C886.367 1204.3 887.762 1204.09 888.066 1204.24C889.033 1204.73 888.49 1218.62 887.073 1229.63C886.797 1231.77 886.903 1232.88 887.428 1233.4C888.332 1234.3 889.819 1234.35 891.172 1233.53C892.152 1232.94 894.361 1228.62 897.205 1221.74C897.978 1219.86 899.558 1216.36 900.715 1213.95C901.871 1211.54 903.64 1206.95 904.645 1203.74C905.649 1200.52 906.909 1197.55 907.443 1197.13C909.569 1195.45 919.59 1192.37 924.641 1191.85C929.726 1191.32 933.269 1190.17 935.893 1188.18C936.706 1187.56 938.833 1186.29 940.621 1185.36C942.409 1184.43 944.933 1182.6 946.231 1181.29C947.53 1179.99 950.734 1177.28 953.351 1175.27C962.947 1167.92 963.424 1165.81 955.656 1165.06C950.188 1164.53 946.584 1163.9 937.075 1161.78C928.979 1159.97 918.376 1155.97 906.938 1150.41C903.168 1148.58 897.18 1146.05 893.937 1144.94C893.45 1144.77 891.323 1143.73 889.21 1142.64C887.097 1141.54 882.842 1139.66 879.755 1138.46C876.667 1137.26 873.436 1135.96 872.576 1135.59C870.072 1134.48 858.373 1130.52 857.633 1130.52C857.263 1130.52 855.907 1130.07 854.621 1129.53C853.335 1128.99 850.686 1128.19 848.734 1127.76C846.782 1127.32 844.485 1126.67 843.628 1126.32C841.52 1125.46 832.916 1124.94 821.844 1125C810.464 1125.06 808.405 1125.06 797.025 1125L797.023 1125ZM792.296 1129.35C799.361 1129.31 801.368 1129.46 803.734 1130.21L806.603 1131.12L806.297 1134.35C805.841 1139.17 803.835 1146.37 801.869 1150.26C799.063 1155.8 795.563 1160.66 793.233 1162.25C791.134 1163.68 791.615 1164.12 786.756 1156.24C780.909 1146.74 777.281 1143.62 767.032 1139.23C763.538 1137.74 760.722 1136.32 760.773 1136.09C760.935 1135.33 769.803 1132.49 776.879 1130.92C782.964 1129.57 784.679 1129.4 792.294 1129.35H792.296ZM826.57 1129.35C834.185 1129.4 835.9 1129.57 841.985 1130.92C849.362 1132.55 858.003 1135.36 857.997 1136.13C857.997 1136.39 855.178 1137.8 851.737 1139.27C841.421 1143.68 837.929 1146.76 831.618 1156.97C829.642 1160.18 827.763 1162.86 827.445 1162.94C825.518 1163.43 820.707 1157.59 816.995 1150.26C815.028 1146.37 813.023 1139.17 812.568 1134.35L812.262 1131.12L815.131 1130.21C817.497 1129.46 819.504 1129.31 826.568 1129.35H826.57ZM889.174 1148.88C890.877 1148.77 901.142 1152.78 907.033 1155.91L910.378 1157.69L910.699 1160.77C910.876 1162.46 911.185 1164.83 911.385 1166.03C911.801 1168.53 908.828 1180.36 905.476 1189.54C904.384 1192.53 902.784 1197.54 901.924 1200.67C901.043 1203.88 899.618 1207.49 898.666 1208.94C897.736 1210.36 896.388 1212.56 895.671 1213.83C894.162 1216.51 893.345 1216.78 893.345 1214.61C893.345 1213.74 892.917 1212.83 892.342 1212.48C891.417 1211.93 891.398 1211.39 892.107 1205.62C893.348 1195.54 892.842 1175.36 892.584 1171.15C892.436 1168.76 892.376 1168.14 892.354 1166.61C892.354 1165.61 892.675 1164.06 891.664 1159.55C890.935 1156.29 889.967 1152.65 889.512 1151.47C889.057 1150.28 888.806 1149.15 888.953 1148.95C888.99 1148.91 889.062 1148.88 889.175 1148.88L889.174 1148.88ZM729.484 1148.94C729.73 1148.9 729.881 1148.91 729.918 1148.96C730.062 1149.15 729.808 1150.28 729.353 1151.47C728.898 1152.66 727.987 1156.25 727.328 1159.47C726.669 1162.68 725.701 1167.34 725.176 1169.82C724.983 1174.68 723.373 1179.44 722.566 1183.92C721.38 1187.05 721.381 1186.44 721.381 1187.05C721.381 1189.58 719.589 1197.67 718.238 1201.3C717.443 1203.45 716.34 1206.89 715.788 1208.97C715.236 1211.04 714.561 1212.74 714.29 1212.74C714.018 1212.74 713.607 1212.03 713.376 1211.16C713.146 1210.3 712.624 1209.15 712.218 1208.61C711.812 1208.07 711.318 1206.26 711.122 1204.58C710.925 1202.91 710.387 1201.05 709.927 1200.45C708.686 1198.83 708.499 1197.71 706.902 1182.33C705.206 1166 705.105 1162.74 706.256 1161.38C706.712 1160.85 707.178 1159.89 707.291 1159.25C707.499 1158.08 710.71 1156.15 717.534 1153.11C721.441 1151.37 727.765 1149.19 729.484 1148.94V1148.94ZM693.72 1163.6C693.822 1163.6 693.993 1165.29 694.095 1167.34C694.197 1169.4 694.54 1171.48 694.854 1171.96C695.638 1173.17 694.892 1173.06 692.272 1171.61C690.331 1170.52 687.702 1167.36 687.702 1166.11C687.702 1165.76 692.915 1163.59 693.721 1163.6H693.72ZM925.146 1163.6C925.951 1163.59 931.165 1165.76 931.165 1166.11C931.165 1167.36 928.537 1170.52 926.595 1171.61C923.993 1173.06 923.229 1173.17 924.013 1171.96C924.327 1171.48 924.669 1169.4 924.772 1167.34C924.874 1165.29 925.044 1163.6 925.146 1163.6V1163.6Z" fill="#1F231A"/>
</svg>
