<svg width="28" height="28" viewBox="0 0 28 28" fill="none" xmlns="http://www.w3.org/2000/svg">
<path d="M22.1268 9.76554H17.0753V8.58501H22.1289V9.76744L22.1268 9.76554ZM13.7116 14.611C14.0383 15.0855 14.1996 15.6625 14.1996 16.3401C14.1996 17.0423 14.0182 17.6687 13.6431 18.2248C13.3932 18.6154 13.0592 18.9525 12.6626 19.2143C12.266 19.4762 11.8155 19.6569 11.3401 19.745C10.7566 19.8549 10.1626 19.9083 9.56755 19.9045H3.91708V8.09534H9.97692C11.5035 8.11811 12.5864 8.53566 13.2256 9.35369C13.6088 9.85475 13.8004 10.4564 13.8004 11.1567C13.8004 11.878 13.6088 12.4569 13.2196 12.8953C13.0058 13.142 12.6872 13.366 12.2657 13.5672C12.903 13.7873 13.387 14.1328 13.7116 14.611ZM6.81088 12.751H9.46672C10.0112 12.751 10.4528 12.6542 10.7916 12.4588C11.1324 12.2633 11.3018 11.9178 11.3018 11.4206C11.3018 10.8702 11.078 10.5057 10.6283 10.3311C10.1478 10.1957 9.6475 10.1329 9.14609 10.1451H6.81088V12.751ZM11.5579 16.1712C11.5579 15.5581 11.2897 15.1349 10.7594 14.9071C10.4609 14.7781 10.0415 14.7116 9.50504 14.7059H6.81088V17.8528H9.46269C10.0072 17.8528 10.4307 17.7863 10.7331 17.6459C11.2817 17.3897 11.5579 16.9 11.5579 16.1712ZM24.0023 14.2504C24.0628 14.6376 24.091 15.1975 24.0809 15.9301H17.5371C17.5734 16.7804 17.8839 17.3745 18.4768 17.7142C18.8317 17.9287 19.2633 18.0331 19.7715 18.0331C20.3059 18.0331 20.7394 17.9059 21.0762 17.644C21.2767 17.4829 21.4406 17.2853 21.5582 17.0632H23.9579C23.8934 17.5662 23.605 18.0748 23.0867 18.593C22.2801 19.4148 21.1549 19.8266 19.7049 19.8266C18.5525 19.8407 17.4317 19.4725 16.5389 18.7866C15.6274 18.0919 15.1676 16.9645 15.1676 15.3987C15.1676 13.9316 15.581 12.808 16.4058 12.026C17.2326 11.2422 18.3034 10.8531 19.6222 10.8531C20.4027 10.8531 21.1065 10.984 21.7356 11.2479C22.3608 11.5136 22.879 11.9292 23.2864 12.5005C23.6554 13.0054 23.8914 13.5861 24.0023 14.2504ZM21.6429 14.4706C21.5985 13.8822 21.3888 13.4381 21.0137 13.1344C20.6265 12.8241 20.1306 12.6604 19.6222 12.6751C19.0173 12.6751 18.5514 12.8402 18.2187 13.161C17.886 13.4836 17.6783 13.9202 17.5936 14.4706H21.6429Z" fill="#EEEEEE"/>
<path d="M25.7495 0H2.2505C1.008 0 0 1.008 0 2.2505V25.7495C0 26.992 1.008 28 2.2505 28H25.7495C26.992 28 28 26.992 28 25.7495V2.2505C28 1.008 26.992 0 25.7495 0ZM25.7495 25.76C10.0765 25.7565 2.24 25.753 2.24 25.7495C2.2435 10.0765 2.247 2.24 2.2505 2.24C17.9235 2.2435 25.76 2.247 25.76 2.2505C25.7565 17.9235 25.753 25.76 25.7495 25.76Z" fill="#EEEEEE"/>
</svg>
