<svg width="48" height="37" viewBox="0 0 48 37" fill="none" xmlns="http://www.w3.org/2000/svg">
<path d="M45.5999 0.515801C45.3955 0.494733 45.1894 0.494733 44.9849 0.515801H2.98494C2.71576 0.519949 2.44836 0.560311 2.18994 0.635801L23.8649 22.2208L45.5999 0.515801Z" fill="#EEEEEE"/>
<path d="M47.82 2.2207L25.98 23.9707C25.4179 24.5295 24.6576 24.8431 23.865 24.8431C23.0724 24.8431 22.3121 24.5295 21.75 23.9707L0.105 2.3857C0.0384591 2.63026 0.00317803 2.88227 0 3.1357V33.1357C0 33.9314 0.316071 34.6944 0.87868 35.257C1.44129 35.8196 2.20435 36.1357 3 36.1357H45C45.7957 36.1357 46.5587 35.8196 47.1213 35.257C47.6839 34.6944 48 33.9314 48 33.1357V3.1357C47.9881 2.82319 47.9273 2.51446 47.82 2.2207ZM5.055 33.1357H2.97V30.9907L13.875 20.1757L15.99 22.2907L5.055 33.1357ZM44.97 33.1357H42.87L31.935 22.2907L34.05 20.1757L44.955 30.9907L44.97 33.1357Z" fill="#EEEEEE"/>
</svg>
