<svg width="29" height="29" viewBox="0 0 29 29" fill="none" xmlns="http://www.w3.org/2000/svg">
<path d="M14.4962 7.31665C10.5211 7.31665 7.31302 10.5248 7.31302 14.5C7.31302 18.4752 10.5211 21.6834 14.4962 21.6834C18.4713 21.6834 21.6795 18.4752 21.6795 14.5C21.6795 10.5248 18.4713 7.31665 14.4962 7.31665ZM14.4962 19.1687C11.9255 19.1687 9.82767 17.0707 9.82767 14.5C9.82767 11.9293 11.9255 9.83135 14.4962 9.83135C17.0669 9.83135 19.1648 11.9293 19.1648 14.5C19.1648 17.0707 17.0669 19.1687 14.4962 19.1687ZM21.9736 5.34832C21.0455 5.34832 20.296 6.09782 20.296 7.02595C20.296 7.95408 21.0455 8.70358 21.9736 8.70358C22.9018 8.70358 23.6513 7.95758 23.6513 7.02595C23.6515 6.80556 23.6083 6.58729 23.5241 6.38362C23.4399 6.17996 23.3163 5.9949 23.1605 5.83907C23.0047 5.68323 22.8196 5.55967 22.616 5.47546C22.4123 5.39124 22.194 5.34804 21.9736 5.34832ZM28.4984 14.5C28.4984 12.5667 28.5159 10.6509 28.4074 8.7211C28.2988 6.47958 27.7875 4.49024 26.1484 2.85113C24.5058 1.20852 22.52 0.700677 20.2785 0.592103C18.3453 0.48353 16.4295 0.501042 14.4997 0.501042C12.5665 0.501042 10.6507 0.48353 8.72094 0.592103C6.47947 0.700677 4.49016 1.21202 2.85109 2.85113C1.20851 4.49374 0.700673 6.47958 0.592102 8.7211C0.48353 10.6544 0.501042 12.5702 0.501042 14.5C0.501042 16.4298 0.48353 18.3491 0.592102 20.2789C0.700673 22.5204 1.21201 24.5098 2.85109 26.1489C4.49367 27.7915 6.47947 28.2993 8.72094 28.4079C10.6542 28.5165 12.57 28.499 14.4997 28.499C16.433 28.499 18.3488 28.5165 20.2785 28.4079C22.52 28.2993 24.5093 27.788 26.1484 26.1489C27.791 24.5063 28.2988 22.5204 28.4074 20.2789C28.5195 18.3491 28.4984 16.4333 28.4984 14.5ZM25.4164 22.7586C25.1607 23.396 24.8525 23.8723 24.3587 24.3627C23.8649 24.8565 23.3921 25.1647 22.7547 25.4204C20.9125 26.1524 16.5381 25.9878 14.4962 25.9878C12.4544 25.9878 8.07652 26.1524 6.23431 25.4239C5.59689 25.1682 5.12058 24.86 4.63025 24.3662C4.13643 23.8723 3.82823 23.3995 3.57256 22.7621C2.84408 20.9163 3.00869 16.5419 3.00869 14.5C3.00869 12.4581 2.84408 8.08016 3.57256 6.23792C3.82823 5.60049 4.13643 5.12417 4.63025 4.63383C5.12408 4.1435 5.59689 3.83179 6.23431 3.57612C8.07652 2.84763 12.4544 3.01224 14.4962 3.01224C16.5381 3.01224 20.916 2.84763 22.7582 3.57612C23.3956 3.83179 23.8719 4.14 24.3622 4.63383C24.856 5.12767 25.1642 5.60049 25.4199 6.23792C26.1484 8.08016 25.9838 12.4581 25.9838 14.5C25.9838 16.5419 26.1484 20.9163 25.4164 22.7586Z" fill="#EEEEEE"/>
</svg>
