<svg width="28" height="29" viewBox="0 0 28 29" fill="none" xmlns="http://www.w3.org/2000/svg">
<path d="M25.7495 0.5H2.2505C1.008 0.5 0 1.508 0 2.7505V26.2495C0 27.492 1.008 28.5 2.2505 28.5H25.7495C26.992 28.5 28 27.492 28 26.2495V2.7505C28 1.508 26.992 0.5 25.7495 0.5ZM25.7495 26.26C10.0765 26.2565 2.24 26.253 2.24 26.2495C2.2435 10.5765 2.247 2.74 2.2505 2.74C17.9235 2.7435 25.76 2.747 25.76 2.7505C25.7565 18.4235 25.753 26.26 25.7495 26.26ZM4.151 10.9965H8.3055V24.3595H4.151V10.9965ZM6.23 9.1695C7.5565 9.1695 8.638 8.0915 8.638 6.7615C8.638 6.44528 8.57572 6.13215 8.4547 5.84C8.33369 5.54785 8.15632 5.28239 7.93271 5.05879C7.70911 4.83518 7.44365 4.65781 7.1515 4.5368C6.85935 4.41578 6.54622 4.3535 6.23 4.3535C5.91378 4.3535 5.60065 4.41578 5.3085 4.5368C5.01635 4.65781 4.75089 4.83518 4.52729 5.05879C4.30368 5.28239 4.12631 5.54785 4.0053 5.84C3.88428 6.13215 3.822 6.44528 3.822 6.7615C3.8185 8.0915 4.8965 9.1695 6.23 9.1695ZM15.0605 17.748C15.0605 16.005 15.393 14.318 17.5525 14.318C19.6805 14.318 19.712 16.3095 19.712 17.86V24.3595H23.863V17.0305C23.863 13.4325 23.086 10.664 18.8825 10.664C16.863 10.664 15.5085 11.7735 14.952 12.8235H14.896V10.9965H10.9095V24.3595H15.0605V17.748Z" fill="#EEEEEE"/>
</svg>
