<svg width="108" height="44" viewBox="0 0 108 44" fill="none" xmlns="http://www.w3.org/2000/svg">
<path d="M12.4584 17.1971V18.3538H0.482606V0.5H12.2305V1.65673H1.77387V8.67251H10.914V9.77895H1.77387V17.1971H12.4584Z" fill="#EEEEEE"/>
<path d="M24.2774 18.3538V0.5H25.5686V17.1971H36.3038V18.3538H24.2774Z" fill="#EEEEEE"/>
<path d="M57.365 17.1971V18.3538H45.3891V0.5H57.1371V1.65673H46.6804V8.67251H55.8205V9.77895H46.6804V17.1971H57.365Z" fill="#EEEEEE"/>
<path d="M69.0882 2.91404V18.3538H67.7969V0.5H68.7843L81.3931 16.2164V0.5H82.6844V18.3538H81.4944L69.0882 2.91404Z" fill="#EEEEEE"/>
<path d="M98.7729 0.5H99.8869L107.483 18.3538H106.115L103.609 12.4696H95.0257L92.5192 18.3538H91.1266L98.7729 0.5ZM103.254 11.4135L99.3299 2.05907L95.3296 11.4135H103.254Z" fill="#EEEEEE"/>
<path d="M0.482605 41.3374L11.1418 28.1357H0.482606V25.6462H14.4586V27.8088L3.79938 41.0105H14.4839V43.5H0.482605V41.3374Z" fill="#EEEEEE"/>
<path d="M17.8996 25.6462L23.3178 39.9544L28.7107 25.6462H31.7237L24.5331 43.5H22.1025L14.8867 25.6462H17.8996Z" fill="#EEEEEE"/>
<path d="M45.617 41.0105V43.5H33.2867V25.6462H45.3891V28.1357H36.1224V33.2152H44.1485V35.5538H36.1224V41.0105H45.617Z" fill="#EEEEEE"/>
<path d="M47.9094 43.5V25.6462H55.7329C56.5431 25.6462 57.2858 25.8138 57.9609 26.1491C58.653 26.4844 59.2438 26.9287 59.7333 27.4819C60.2228 28.0183 60.6025 28.6386 60.8726 29.3427C61.1595 30.03 61.303 30.7341 61.303 31.455C61.303 32.0585 61.2186 32.6368 61.0498 33.1901C60.881 33.7433 60.6447 34.2546 60.3409 34.724C60.0371 35.1934 59.6657 35.6041 59.2269 35.9561C58.788 36.2914 58.307 36.5429 57.7837 36.7105L62.0119 43.5H58.7965L54.8974 37.2889H50.7451V43.5H47.9094ZM50.7451 34.7994H55.7076C56.1127 34.7994 56.4756 34.7156 56.7963 34.548C57.1339 34.3635 57.4208 34.1205 57.6571 33.8187C57.8934 33.5002 58.0791 33.1398 58.2141 32.7374C58.3492 32.3351 58.4167 31.9076 58.4167 31.455C58.4167 31.0023 58.3323 30.5749 58.1635 30.1725C58.0116 29.7702 57.8006 29.4181 57.5305 29.1164C57.2773 28.8146 56.9735 28.5799 56.619 28.4123C56.2814 28.2279 55.927 28.1357 55.5556 28.1357H50.7451V34.7994Z" fill="#EEEEEE"/>
<path d="M76.3458 41.0105V43.5H64.0155V25.6462H76.1179V28.1357H66.8512V33.2152H74.8773V35.5538H66.8512V41.0105H76.3458Z" fill="#EEEEEE"/>
<path d="M79.7775 25.6462L85.1957 39.9544L90.5886 25.6462H93.6016L86.411 43.5H83.9804L76.7645 25.6462H79.7775Z" fill="#EEEEEE"/>
<path d="M97.7285 25.6462H100.21L107.299 43.5H104.311L102.413 38.6468H95.4752L93.6016 43.5H90.5886L97.7285 25.6462ZM101.855 36.5596L98.9691 28.8901L95.9815 36.5596H101.855Z" fill="#EEEEEE"/>
<path d="M0.482614 20.8684H107.299V22.1257H0.482614V20.8684Z" fill="#EEEEEE"/>
</svg>
